<svg xmlns="http://www.w3.org/2000/svg" version="1.0" preserveAspectRatio="xMidYMid meet" viewBox="260 347 344 180.88">

<g transform="translate(0.000000,864.000000) scale(0.100000,-0.100000)" fill="#000000" stroke="none">
<path d="M2600 4325 l0 -845 1720 0 1720 0 0 845 0 845 -1720 0 -1720 0 0 -845z m3410 0 l0 -815 -1690 0 -1690 0 0 815 0 815 1690 0 1690 0 0 -815z"/>
<path d="M3790 4315 l0 -117 65 4 c55 3 70 8 93 31 23 23 27 36 27 82 0 46 -4 59 -27 82 -23 23 -38 28 -93 31 l-65 4 0 -117z m115 81 c27 -12 35 -22 41 -51 14 -77 -22 -125 -93 -125 l-33 0 0 95 c0 95 0 95 25 95 14 0 41 -6 60 -14z"/>
<path d="M4194 4370 c-24 -10 -39 -28 -30 -37 3 -3 12 0 20 6 20 17 71 10 71 -9 0 -8 -19 -21 -44 -30 -55 -19 -69 -39 -53 -74 9 -20 19 -26 45 -26 18 0 38 5 44 11 8 8 13 8 17 0 4 -6 17 -11 28 -11 20 0 20 1 5 18 -12 13 -17 37 -17 75 0 46 -4 58 -22 71 -25 18 -33 19 -64 6z m66 -98 c0 -30 -24 -54 -51 -50 -36 5 -38 43 -2 56 42 15 53 14 53 -6z"/>
<path d="M4630 4367 c-50 -25 -63 -105 -24 -148 23 -26 85 -25 108 0 10 11 13 22 8 25 -5 3 -15 -1 -22 -9 -25 -30 -90 -8 -90 31 0 11 15 14 60 14 59 0 60 0 60 28 0 49 -55 82 -100 59z m69 -36 c14 -25 5 -31 -46 -31 -47 0 -48 2 -33 31 14 25 66 26 79 0z"/>
<path d="M4030 4285 c0 -69 3 -85 15 -85 12 0 15 14 15 63 0 68 10 87 47 87 13 0 23 5 23 10 0 15 -57 12 -63 -2 -4 -10 -6 -10 -6 0 -1 6 -8 12 -16 12 -12 0 -15 -16 -15 -85z"/>
<path d="M4330 4358 c0 -7 9 -44 18 -83 23 -90 44 -98 66 -24 9 29 16 59 16 68 0 28 18 -3 34 -62 27 -95 52 -71 80 77 4 22 3 36 -3 36 -9 0 -17 -23 -36 -105 -8 -36 -17 -24 -36 53 -9 39 -17 52 -31 52 -10 0 -18 -6 -18 -13 0 -7 -7 -38 -16 -68 -18 -59 -19 -59 -44 39 -10 38 -30 59 -30 30z"/>
<path d="M4780 4285 c0 -50 4 -85 10 -85 6 0 10 21 10 48 0 56 18 95 45 100 35 7 41 22 9 22 -16 0 -35 -5 -42 -12 -9 -9 -12 -9 -12 0 0 7 -4 12 -10 12 -6 0 -10 -35 -10 -85z"/>
<path d="M5230 3430 c-6 -12 -8 -30 -5 -40 7 -24 52 -37 74 -23 20 13 26 50 11 69 -19 21 -67 18 -80 -6z"/>
<path d="M5360 3435 c-19 -23 -4 -64 27 -71 14 -4 33 -2 42 3 20 13 26 50 11 69 -16 18 -64 18 -80 -1z"/>
<path d="M2880 3410 c0 -6 85 -10 235 -10 150 0 235 4 235 10 0 6 -85 10 -235 10 -150 0 -235 -4 -235 -10z"/>
</g>
</svg>