<?xml version="1.0" encoding="UTF-8"?>
<svg version="1.1" xmlns="http://www.w3.org/2000/svg" width="367" height="374">
<path d="M0 0 C2.5765703 2.1958183 5.10158127 4.44632775 7.63256836 6.69458008 C8.65350586 7.52086914 9.67444336 8.3471582 10.72631836 9.19848633 C21.41860877 18.38178414 29.21035919 31.29739079 35.63256836 43.69458008 C36.0644043 44.49508789 36.49624023 45.2955957 36.94116211 46.12036133 C51.42546082 73.69016355 53.71467603 109.42615064 45.00756836 139.19458008 C42.16467281 148.1846138 38.20332504 156.46906857 33.63256836 164.69458008 C33.14014648 165.60336914 32.64772461 166.5121582 32.14038086 167.44848633 C17.17454461 193.78666708 -6.81894489 212.89340233 -34.92993164 223.50708008 C-35.66050781 223.78519531 -36.39108398 224.06331055 -37.14379883 224.34985352 C-50.30797678 229.08803418 -62.73979287 230.18149348 -76.59887695 230.08569336 C-79.36337614 230.06960368 -82.12641391 230.08562719 -84.89086914 230.10473633 C-98.60987022 230.12248029 -110.89382404 228.42207164 -123.80493164 223.50708008 C-124.60640625 223.20447266 -125.40788086 222.90186523 -126.23364258 222.59008789 C-152.91876466 212.23197733 -175.92763779 193.54010882 -190.36743164 168.69458008 C-190.72095703 168.11063477 -191.07448242 167.52668945 -191.4387207 166.92504883 C-208.22834741 139.06075575 -213.39102485 103.79467592 -205.62133789 72.22583008 C-198.66430121 46.40272006 -185.64983257 23.40807603 -165.36743164 5.69458008 C-164.70743164 5.69458008 -164.04743164 5.69458008 -163.36743164 5.69458008 C-163.03743164 4.70458008 -162.70743164 3.71458008 -162.36743164 2.69458008 C-160.25336672 0.98627449 -158.16151631 -0.57867644 -155.92993164 -2.11791992 C-155.28813965 -2.56441895 -154.64634766 -3.01091797 -153.98510742 -3.47094727 C-152.11925502 -4.75924055 -150.24417008 -6.03306379 -148.36743164 -7.30541992 C-147.55918945 -7.86874023 -146.75094727 -8.43206055 -145.91821289 -9.01245117 C-102.79082452 -37.1188102 -39.40552841 -32.70446385 0 0 Z M-131.62084961 57.48779297 C-144.78688294 73.73128012 -148.72428606 91.03706672 -147.36743164 111.69458008 C-145.57366998 127.51875474 -137.59477058 140.77274696 -126.36743164 151.69458008 C-125.35229492 152.74258789 -125.35229492 152.74258789 -124.31665039 153.81176758 C-112.69368273 165.03876239 -95.81242351 170.60301973 -79.92993164 171.06958008 C-60.88178052 170.51477956 -45.43229757 164.00502333 -31.61743164 151.13208008 C-30.87493164 150.32770508 -30.13243164 149.52333008 -29.36743164 148.69458008 C-28.91110352 148.22020508 -28.45477539 147.74583008 -27.98461914 147.25708008 C-16.47633268 134.72449587 -9.68184654 116.77371474 -10.36743164 99.69458008 C-12.53562017 80.69440164 -19.837377 62.15945931 -34.83227539 49.63598633 C-64.64343838 27.01029735 -106.5027427 27.86272652 -131.62084961 57.48779297 Z " fill="#A5CE13" transform="translate(262.367431640625,144.305419921875)"/>
<path d="M0 0 C1.04172363 0.07387939 2.08344727 0.14775879 3.15673828 0.22387695 C10.40241374 0.84266483 17.18782499 2.31108113 24.1875 4.25 C25.06317627 4.48380371 25.93885254 4.71760742 26.84106445 4.95849609 C42.92188672 9.28551999 58.1725967 14.1893281 72.74609375 22.328125 C74.80294914 23.47678885 76.87441229 24.60068173 78.97265625 25.671875 C113.24326622 43.24654678 147.06204144 77.07399969 163.1875 112.25 C163.53493943 113.57972731 163.87012006 114.91277943 164.1875 116.25 C156.22478316 116.41260547 148.26276634 116.5367743 140.29879665 116.6126852 C136.60021017 116.64913023 132.90276412 116.69851226 129.20483398 116.77807617 C125.63208479 116.85446057 122.06042817 116.8960559 118.48692513 116.9141407 C117.12769438 116.92701791 115.76851965 116.95216628 114.40975761 116.9901104 C103.77580794 117.27510182 103.77580794 117.27510182 99.81800842 114.72071838 C98.06280591 112.98502423 96.61388314 111.25918947 95.1875 109.25 C94.54941406 108.53972656 93.91132813 107.82945313 93.25390625 107.09765625 C92.50947266 106.21400391 92.50947266 106.21400391 91.75 105.3125 C68.64984693 78.81078593 34.22675884 60.98079244 -0.8125 58.25 C-1.87984375 58.14042969 -2.9471875 58.03085937 -4.046875 57.91796875 C-24.10114163 55.92845817 -45.62064551 56.81721414 -64.8125 63.25 C-66.06675781 63.65992187 -67.32101563 64.06984375 -68.61328125 64.4921875 C-91.90675721 72.47023926 -112.11370437 85.83418995 -129.0546875 103.6015625 C-130.8125 105.25 -130.8125 105.25 -132.8125 105.25 C-133.08449219 105.83394531 -133.35648437 106.41789062 -133.63671875 107.01953125 C-134.79772112 109.22196431 -136.04607403 111.01695944 -137.625 112.9375 C-138.10582031 113.53949219 -138.58664063 114.14148438 -139.08203125 114.76171875 C-142.56021297 117.75311206 -147.21839055 117.37326854 -151.61254883 117.36352539 C-153.32375664 117.36341209 -153.32375664 117.36341209 -155.0695343 117.36329651 C-156.29053329 117.35813522 -157.51153229 117.35297394 -158.76953125 117.34765625 C-160.02763107 117.3462413 -161.2857309 117.34482635 -162.58195496 117.34336853 C-165.91428529 117.33872573 -169.24654632 117.32975228 -172.57885742 117.31866455 C-175.98420617 117.30840503 -179.3895621 117.30386121 -182.79492188 117.29882812 C-189.46746698 117.2878083 -196.13997949 117.271077 -202.8125 117.25 C-203.07320099 112.06648769 -201.2167787 109.04041578 -198.4375 104.8125 C-197.98560303 104.11020264 -197.53370605 103.40790527 -197.06811523 102.68432617 C-187.42963883 87.83803071 -176.94440849 74.13478877 -164.25 61.75 C-161.82385626 59.37041936 -161.82385626 59.37041936 -160.078125 56.9296875 C-157.38708059 53.74683153 -154.43032936 51.38697924 -151.125 48.875 C-150.49779053 48.39168213 -149.87058105 47.90836426 -149.22436523 47.41040039 C-147.97860303 46.45045616 -146.73133169 45.49246662 -145.48242188 44.53662109 C-143.4227055 42.94967588 -141.40193002 41.31600675 -139.375 39.6875 C-129.49425335 32.04736876 -119.13941076 25.52137001 -107.8125 20.25 C-106.74515625 19.70988281 -105.6778125 19.16976563 -104.578125 18.61328125 C-90.18559442 11.49697447 -74.71261617 6.36013217 -59.0625 2.8125 C-58.39758545 2.66079346 -57.7326709 2.50908691 -57.04760742 2.3527832 C-51.0227077 1.09432826 -44.9444557 0.66944817 -38.8125 0.25 C-37.86117187 0.18321045 -36.90984375 0.1164209 -35.9296875 0.04760742 C-23.9010162 -0.73206693 -12.02733198 -0.89023532 0 0 Z " fill="#6E8899" transform="translate(202.8125,1.75)"/>
<path d="M0 0 C1.72276512 7.26791535 2.92475006 14.54802747 4 21.9375 C4.26055176 23.70927612 4.26055176 23.70927612 4.52636719 25.5168457 C5.89902721 34.99090394 7.05367768 44.47451879 8 54 C9.65 54.33 11.3 54.66 13 55 C13 55.33 13 55.66 13 56 C12.04222656 56.08636719 11.08445313 56.17273437 10.09765625 56.26171875 C-23.78127849 59.68318129 -54.90988506 76.92299927 -78.25390625 101.359375 C-80 103 -80 103 -82 103 C-82.27199219 103.58394531 -82.54398437 104.16789062 -82.82421875 104.76953125 C-83.98522112 106.97196431 -85.23357403 108.76695944 -86.8125 110.6875 C-87.29332031 111.28949219 -87.77414063 111.89148438 -88.26953125 112.51171875 C-91.74771297 115.50311206 -96.40589055 115.12326854 -100.80004883 115.11352539 C-102.51125664 115.11341209 -102.51125664 115.11341209 -104.2570343 115.11329651 C-105.47803329 115.10813522 -106.69903229 115.10297394 -107.95703125 115.09765625 C-109.21513107 115.0962413 -110.4732309 115.09482635 -111.76945496 115.09336853 C-115.10178529 115.08872573 -118.43404632 115.07975228 -121.76635742 115.06866455 C-125.17170617 115.05840503 -128.5770621 115.05386121 -131.98242188 115.04882812 C-138.65496698 115.0378083 -145.32747949 115.021077 -152 115 C-152.26070099 109.81648769 -150.4042787 106.79041578 -147.625 102.5625 C-147.17310303 101.86020264 -146.72120605 101.15790527 -146.25561523 100.43432617 C-136.61713883 85.58803071 -126.13190849 71.88478877 -113.4375 59.5 C-111.01135626 57.12041936 -111.01135626 57.12041936 -109.265625 54.6796875 C-106.57458059 51.49683153 -103.61782936 49.13697924 -100.3125 46.625 C-99.68529053 46.14168213 -99.05808105 45.65836426 -98.41186523 45.16040039 C-97.16610303 44.20045616 -95.91883169 43.24246662 -94.66992188 42.28662109 C-92.6102055 40.69967588 -90.58943002 39.06600675 -88.5625 37.4375 C-78.68175335 29.79736876 -68.32691076 23.27137001 -57 18 C-55.93265625 17.45988281 -54.8653125 16.91976563 -53.765625 16.36328125 C-37.87271574 8.50512056 -18.01752356 0 0 0 Z " fill="#6D8798" transform="translate(152,4)"/>
<path d="M0 0 C6.34965542 -0.0510999 12.69925696 -0.08589991 19.04907227 -0.10986328 C21.2050169 -0.11986317 23.36094818 -0.13346747 25.5168457 -0.15087891 C28.63235796 -0.17539347 31.74768946 -0.18654353 34.86328125 -0.1953125 C35.81270096 -0.20563507 36.76212067 -0.21595764 37.74031067 -0.22659302 C44.36333972 -0.22768036 50.52009004 0.67899464 57 2 C57.33 2 57.66 2 58 2 C58.99 2.33 59.98 2.66 61 3 C60.855625 4.27875 60.71125 5.5575 60.5625 6.875 C60.07328144 11.22284378 59.66321496 15.57510071 59.28125 19.93359375 C59 22 59 22 58 24 C57.79504812 26.16338091 57.63435725 28.33109005 57.5 30.5 C57.11111111 36.77777778 57.11111111 36.77777778 56 39 C55.7724985 40.87056791 55.59037189 42.74685958 55.4375 44.625 C55.35371094 45.62789062 55.26992187 46.63078125 55.18359375 47.6640625 C55.09271484 48.82035156 55.09271484 48.82035156 55 50 C54.34 50 53.68 50 53 50 C53 50.66 53 51.32 53 52 C50.02268093 53.48865953 47.25664208 53.20440287 43.9375 53.28125 C42.87861572 53.30886414 42.87861572 53.30886414 41.79833984 53.33703613 C39.53231209 53.39582106 37.26620438 53.44850629 35 53.5 C25.96070894 53.70930624 16.98885554 53.92989815 8 55 C5.84753199 48.56115174 5.20601407 42.10662807 4.5 35.375 C4.24392555 33.04928714 3.98613218 30.72376286 3.7265625 28.3984375 C3.5414209 26.73893066 3.5414209 26.73893066 3.35253906 25.04589844 C2.66197735 15.74900825 2.66197735 15.74900825 0 7 C-0.04022391 4.6670134 -0.04320247 2.33293334 0 0 Z " fill="#A6CE14" transform="translate(152,4)"/>
<path d="M0 0 C3.34055229 2.76996106 4.99502325 6.49630019 6.875 10.3125 C7.22578613 11.02092041 7.57657227 11.72934082 7.93798828 12.45922852 C22.17837487 41.81406679 24.35708836 78.43954744 13.7734375 109.3671875 C8.74400864 123.00063363 1.48662959 136.93741566 -8 148 C-8.33 148 -8.66 148 -9 148 C-9 146.35 -9 144.7 -9 143 C-7.68 142.67 -6.36 142.34 -5 142 C-5.061875 141.319375 -5.12375 140.63875 -5.1875 139.9375 C-4.89128726 135.29683373 -3.29907353 131.29907353 0 128 C0.33 127.01 0.66 126.02 1 125 C3.0625 124.3125 3.0625 124.3125 5 124 C5 122.68 5 121.36 5 120 C5.66 120 6.32 120 7 120 C8.32 114.72 9.64 109.44 11 104 C11.66 104 12.32 104 13 104 C12.95875 102.865625 12.9175 101.73125 12.875 100.5625 C12.875 95.83110871 13.87971629 91.573148 15 87 C18.00465601 73.71147382 17.57978781 61.40787676 15 48 C14.73123047 46.55367187 14.73123047 46.55367187 14.45703125 45.078125 C13.79370105 41.62681297 13.11252185 38.33756555 12 35 C12.4375 32.3125 12.4375 32.3125 13 30 C12.34 30 11.68 30 11 30 C11 28.68 11 27.36 11 26 C10.34 26 9.68 26 9 26 C8.731875 25.195625 8.46375 24.39125 8.1875 23.5625 C7.795625 22.716875 7.40375 21.87125 7 21 C6.01 20.67 5.02 20.34 4 20 C4.309375 18.824375 4.309375 18.824375 4.625 17.625 C4.74875 16.75875 4.8725 15.8925 5 15 C4.34 14.34 3.68 13.68 3 13 C1.5969958 8.70845775 0.65328585 4.46411996 0 0 Z " fill="#799F3A" transform="translate(292,179)"/>
<path d="M0 0 C1.08361816 0.0822583 2.16723633 0.1645166 3.28369141 0.24926758 C8.72283909 0.72359691 13.69469475 1.44850234 18.875 3.1875 C18.875 3.5175 18.875 3.8475 18.875 4.1875 C16.8835944 4.56883299 14.88220923 4.90075582 12.875 5.1875 C12.38 4.6925 12.38 4.6925 11.875 4.1875 C11.76430176 5.06897705 11.65360352 5.9504541 11.53955078 6.85864258 C11.12072204 10.18203335 10.69917335 13.50505705 10.27587891 16.82788086 C10.09447804 18.25613175 9.91410948 19.68451421 9.73486328 21.11303711 C8.77536725 28.75416335 7.72681712 36.34664233 6.28564453 43.9152832 C5.77752834 46.72683934 5.47189355 49.52736612 5.25 52.375 C5.17523438 53.29667969 5.10046875 54.21835937 5.0234375 55.16796875 C4.97445312 55.83441406 4.92546875 56.50085937 4.875 57.1875 C5.865 57.5175 6.855 57.8475 7.875 58.1875 C6.6375 58.1153125 5.4 58.043125 4.125 57.96875 C-9.63446831 57.21530327 -23.34705107 57.07057002 -37.125 57.1875 C-33.33585511 54.72196051 -29.44726679 54.84118666 -25.078125 54.7734375 C-24.30692322 54.75407135 -23.53572144 54.7347052 -22.7411499 54.7147522 C-20.28587795 54.65512923 -17.83055867 54.60864086 -15.375 54.5625 C-13.70701118 54.52430425 -12.03904174 54.48525159 -10.37109375 54.4453125 C-6.28922057 54.34944209 -2.20725507 54.26534765 1.875 54.1875 C1.875 53.5275 1.875 52.8675 1.875 52.1875 C2.535 52.1875 3.195 52.1875 3.875 52.1875 C3.86339844 51.41664062 3.85179687 50.64578125 3.83984375 49.8515625 C3.83082031 48.84867188 3.82179687 47.84578125 3.8125 46.8125 C3.80089844 45.81476562 3.78929687 44.81703125 3.77734375 43.7890625 C3.875 41.1875 3.875 41.1875 4.875 39.1875 C5.07995188 37.02411909 5.24064275 34.85640995 5.375 32.6875 C5.76388889 26.40972222 5.76388889 26.40972222 6.875 24.1875 C7.2681854 21.92309648 7.61580969 19.65066109 7.9375 17.375 C8.11410156 16.15167969 8.29070312 14.92835937 8.47265625 13.66796875 C8.80527836 10.79062602 8.95755619 8.07696671 8.875 5.1875 C7.885 6.1775 6.895 7.1675 5.875 8.1875 C5.875 6.8675 5.875 5.5475 5.875 4.1875 C-4.53505515 2.84174767 -14.96606661 3.10861915 -25.4375 3.1875 C-29.01692423 3.21420026 -32.59629453 3.23411492 -36.17578125 3.25 C-36.98525711 3.25829834 -37.79473297 3.26659668 -38.6287384 3.27514648 C-42.91425449 3.29365417 -46.90312366 3.04564272 -51.125 2.1875 C-51.125 1.8575 -51.125 1.5275 -51.125 1.1875 C-34.03274115 -0.3131092 -17.1398801 -1.31161368 0 0 Z " fill="#7E9838" transform="translate(203.125,1.8125)"/>
<path d="M0 0 C-3.4766338 2.14336161 -6.21229195 2.21277626 -10.25 2.125 C-11.32765625 2.10695312 -12.4053125 2.08890625 -13.515625 2.0703125 C-14.74539062 2.03550781 -14.74539062 2.03550781 -16 2 C-16 0 -16 0 -14 -2 C-14.886875 -2.28875 -15.77375 -2.5775 -16.6875 -2.875 C-20 -4 -20 -4 -22.4375 -5.0625 C-25.59384114 -6.21725896 -28.67112442 -6.60836758 -32 -7 C-32 -7.66 -32 -8.32 -32 -9 C-46.19 -9.33 -60.38 -9.66 -75 -10 C-74.67 -10.66 -74.34 -11.32 -74 -12 C-48.95792179 -17.11062821 -22.93452195 -9.44987247 0 0 Z " fill="#75892F" transform="translate(240,130)"/>
<path d="M0 0 C1.98 0 3.96 0 6 0 C-7.44665483 11.51495255 -30.37078353 19.22895086 -48 19 C-48 18.01 -48 17.02 -48 16 C-41.4 15.34 -34.8 14.68 -28 14 C-28 13.34 -28 12.68 -28 12 C-26.02 12 -24.04 12 -22 12 C-21.9175 11.38125 -21.835 10.7625 -21.75 10.125 C-21 8 -21 8 -18.9375 6.75 C-18.298125 6.5025 -17.65875 6.255 -17 6 C-17 6.33 -17 6.66 -17 7 C-14.525 7.495 -14.525 7.495 -12 8 C-12 7.34 -12 6.68 -12 6 C-11.01 6 -10.02 6 -9 6 C-8.67 5.34 -8.34 4.68 -8 4 C-6.68 4 -5.36 4 -4 4 C-4 3.34 -4 2.68 -4 2 C-2.68 2 -1.36 2 0 2 C0 1.34 0 0.68 0 0 Z " fill="#789731" transform="translate(246,355)"/>
<path d="M0 0 C2.33944736 0.28730055 4.6739143 0.61936779 7 1 C6.01 1.495 6.01 1.495 5 2 C5 2.99 5 3.98 5 5 C4.34257812 5.4021875 3.68515625 5.804375 3.0078125 6.21875 C0.60682657 7.939852 0.60682657 7.939852 0.6796875 11.46875 C0.72477172 12.81332057 0.7906032 14.15732364 0.875 15.5 C1.24204244 22.63693634 1.24204244 22.63693634 -1 26 C-2.46807346 31.26512765 -3.28803251 36.52738226 -3 42 C-2.34 42.33 -1.68 42.66 -1 43 C-1.928125 44.36125 -1.928125 44.36125 -2.875 45.75 C-4.45040384 48.15944116 -5.7575449 50.42554349 -7 53 C-7.42608564 46.43512498 -6.61367655 40.47121639 -5.2824707 34.04467773 C-3.67275983 25.93799754 -2.86632365 17.73539059 -2.00268555 9.52148438 C-1.88578369 8.43287109 -1.76888184 7.34425781 -1.6484375 6.22265625 C-1.54708496 5.24047119 -1.44573242 4.25828613 -1.34130859 3.24633789 C-1 1 -1 1 0 0 Z " fill="#7DA183" transform="translate(215,5)"/>
<path d="M0 0 C0.33 0 0.66 0 1 0 C1.1875 3.375 1.1875 3.375 1 7 C0.01 7.66 -0.98 8.32 -2 9 C-3.01529541 11.32671865 -4.01488198 13.6603447 -5 16 C-6.79692157 18.36866934 -7.77046282 18.92348761 -10.625 19.875 C-11.40875 20.24625 -12.1925 20.6175 -13 21 C-13.34153937 22.66500443 -13.67449498 24.33178677 -14 26 C-16.89548041 28.20970874 -18.33157745 29 -22 29 C-22 29.66 -22 30.32 -22 31 C-25.82320557 32.42258812 -28.91281305 33.24042276 -33 33 C-31 31 -31 31 -28.4375 29.8125 C-24.56954261 27.77303156 -21.42438983 25.28525177 -18.05078125 22.5234375 C-16 21 -16 21 -13 20 C-12.28696884 18.6908748 -11.62712267 17.35238285 -11 16 C-9.90433712 14.54001572 -8.77692644 13.10351438 -7.625 11.6875 C-4.65578788 7.94344129 -2.24167604 4.21435096 0 0 Z " fill="#7FA226" transform="translate(244,276)"/>
<path d="M0 0 C0.99 0 1.98 0 3 0 C4.72276512 7.26791535 5.92475006 14.54802747 7 21.9375 C7.26055176 23.70927612 7.26055176 23.70927612 7.52636719 25.5168457 C8.89902721 34.99090394 10.05367768 44.47451879 11 54 C12.65 54.33 14.3 54.66 16 55 C16 55.33 16 55.66 16 56 C12.7 56 9.4 56 6 56 C6.185625 54.845 6.37125 53.69 6.5625 52.5 C7.00875943 48.95471678 6.81085086 45.84199269 6.2578125 42.296875 C5.725688 37.55612943 5.92854401 32.76373258 6 28 C5.34 28 4.68 28 4 28 C2.31055164 18.91921505 1.75091024 10.23015944 2 1 C1.34 0.67 0.68 0.34 0 0 Z " fill="#718667" transform="translate(149,4)"/>
<path d="M0 0 C0.44461451 5.37370292 0.44461451 5.37370292 -1.5390625 8.16796875 C-2.22742188 8.83441406 -2.91578125 9.50085938 -3.625 10.1875 C-8.19364859 14.95125102 -11.09366998 20.11027818 -14 26 C-14.33 26 -14.66 26 -15 26 C-15 23.03 -15 20.06 -15 17 C-13.35 16.67 -11.7 16.34 -10 16 C-10.33 13.69 -10.66 11.38 -11 9 C-10.01 9 -9.02 9 -8 9 C-7.814375 7.576875 -7.814375 7.576875 -7.625 6.125 C-7 3 -7 3 -5 1 C-3 0 -3 0 0 0 Z " fill="#99B315" transform="translate(135,193)"/>
<path d="M0 0 C3.34054888 2.76995823 4.99503419 6.49628198 6.875 10.3125 C7.22361084 11.01656982 7.57222168 11.72063965 7.93139648 12.44604492 C16.77426913 30.67719261 16.77426913 30.67719261 15 36 C14.71125 35.195625 14.4225 34.39125 14.125 33.5625 C13.26737432 30.8673532 13.26737432 30.8673532 11 30 C11 28.68 11 27.36 11 26 C10.34 26 9.68 26 9 26 C8.731875 25.195625 8.46375 24.39125 8.1875 23.5625 C7.795625 22.716875 7.40375 21.87125 7 21 C6.01 20.67 5.02 20.34 4 20 C4.20625 19.21625 4.4125 18.4325 4.625 17.625 C4.810625 16.325625 4.810625 16.325625 5 15 C4.34 14.34 3.68 13.68 3 13 C1.5969958 8.70845775 0.65328585 4.46411996 0 0 Z " fill="#71972C" transform="translate(292,179)"/>
<path d="M0 0 C1.16662926 -0.00642769 1.16662926 -0.00642769 2.35682678 -0.01298523 C3.99658233 -0.01871055 5.63636327 -0.01924207 7.27612305 -0.01489258 C9.77371893 -0.01173322 12.27012851 -0.03521079 14.76757812 -0.06054688 C16.36588393 -0.06282025 17.9641929 -0.06352318 19.5625 -0.0625 C20.30330307 -0.07170975 21.04410614 -0.08091949 21.80735779 -0.09040833 C26.56069576 -0.04836144 29.77012441 0.87399408 33.84765625 3.30078125 C33.84765625 3.96078125 33.84765625 4.62078125 33.84765625 5.30078125 C33.12320313 5.16800781 32.39875 5.03523437 31.65234375 4.8984375 C30.68554688 4.72183594 29.71875 4.54523438 28.72265625 4.36328125 C27.77132812 4.18925781 26.82 4.01523438 25.83984375 3.8359375 C24.85242188 3.65933594 23.865 3.48273438 22.84765625 3.30078125 C21.87828125 3.1203125 20.90890625 2.93984375 19.91015625 2.75390625 C9.05747181 1.14815192 -0.48886279 2.46720246 -10.88671875 5.42578125 C-14.15234375 6.30078125 -14.15234375 6.30078125 -17.15234375 6.30078125 C-17.15234375 5.64078125 -17.15234375 4.98078125 -17.15234375 4.30078125 C-15.83234375 4.30078125 -14.51234375 4.30078125 -13.15234375 4.30078125 C-13.15234375 3.64078125 -13.15234375 2.98078125 -13.15234375 2.30078125 C-8.79814464 0.1543902 -4.76031249 -0.00584064 0 0 Z " fill="#7A9128" transform="translate(173.15234375,176.69921875)"/>
<path d="M0 0 C8.35598853 2.9465059 15.36124657 9.25837541 22 15 C21.01 15.33 20.02 15.66 19 16 C18.01 15.34 17.02 14.68 16 14 C16 13.34 16 12.68 16 12 C13.525 13.485 13.525 13.485 11 15 C10 14 10 14 9.9375 11.4375 C9.958125 10.633125 9.97875 9.82875 10 9 C5.89776415 7.98459888 5.89776415 7.98459888 2 9 C1.855625 8.2575 1.71125 7.515 1.5625 6.75 C1.09812508 4.47972261 0.58136431 2.24240521 0 0 Z " fill="#98C824" transform="translate(247,135)"/>
<path d="M0 0 C0.495 1.485 0.495 1.485 1 3 C-0.546875 3.4021875 -0.546875 3.4021875 -2.125 3.8125 C-4.66385047 4.52337813 -6.51965514 5.28242127 -8.875 6.5625 C-12.88895849 8.40892091 -16.6295325 8.71834765 -21 9 C-21 9.66 -21 10.32 -21 11 C-30.41002278 14.25968109 -30.41002278 14.25968109 -35 15 C-28.86914867 9.63550508 -21.70132916 6.81634509 -14.25 3.8125 C-13.5998291 3.55033691 -12.9496582 3.28817383 -12.27978516 3.01806641 C-8.06871475 1.34952907 -4.53375929 0 0 0 Z " fill="#879C28" transform="translate(151,122)"/>
<path d="M0 0 C0.66 0.33 1.32 0.66 2 1 C2.59355614 3.64860427 2.74209269 6.29197322 3 9 C3.99 9 4.98 9 6 9 C6.33 7.68 6.66 6.36 7 5 C7.66 5.66 8.32 6.32 9 7 C8.73228903 8.67845754 8.38302516 10.34404692 8 12 C7.74247565 15.60534086 7.55826197 19.21030171 7.37890625 22.8203125 C7 26 7 26 5 29 C4.81824219 27.97261719 4.63648438 26.94523437 4.44921875 25.88671875 C3.11324153 18.48153669 1.67318124 11.24336266 -0.546875 4.0390625 C-1 2 -1 2 0 0 Z " fill="#98C528" transform="translate(246,215)"/>
<path d="M0 0 C2.75008135 0.64548853 5.50006756 1.29137766 8.25 1.9375 C9.02730469 2.11990234 9.80460938 2.30230469 10.60546875 2.49023438 C11.35957031 2.66748047 12.11367187 2.84472656 12.890625 3.02734375 C13.58188477 3.18968506 14.27314453 3.35202637 14.98535156 3.51928711 C16.35663369 3.84648712 17.72407957 4.19010158 19.08764648 4.5480957 C31.10045515 7.38681763 44.4846175 3.38687721 56 0 C55.67 0.66 55.34 1.32 55 2 C54.34 2 53.68 2 53 2 C53 2.66 53 3.32 53 4 C34.8316995 7.86363859 17.51537128 9.135892 0 2 C0 1.34 0 0.68 0 0 Z " fill="#718329" transform="translate(155,309)"/>
<path d="M0 0 C0.66 0 1.32 0 2 0 C2.1546875 0.928125 2.1546875 0.928125 2.3125 1.875 C2.87525373 4.36526484 2.87525373 4.36526484 6 6 C4.7625 5.9278125 3.525 5.855625 2.25 5.78125 C-11.50946831 5.02780327 -25.22205107 4.88307002 -39 5 C-35.21085511 2.53446051 -31.32226679 2.65368666 -26.953125 2.5859375 C-26.18192322 2.56657135 -25.41072144 2.5472052 -24.6161499 2.5272522 C-22.16087795 2.46762923 -19.70555867 2.42114086 -17.25 2.375 C-15.58201118 2.33680425 -13.91404174 2.29775159 -12.24609375 2.2578125 C-8.16422057 2.16194209 -4.08225507 2.07784765 0 2 C0 1.34 0 0.68 0 0 Z " fill="#5C7324" transform="translate(205,54)"/>
<path d="M0 0 C6.75 1.625 6.75 1.625 9 5 C9 5.99 9 6.98 9 8 C9.99 8 10.98 8 12 8 C12.33 8.66 12.66 9.32 13 10 C16.02934491 10.65772428 16.02934491 10.65772428 19 11 C19 14 19 14 18 16 C18.66 16 19.32 16 20 16 C20.33 17.32 20.66 18.64 21 20 C17.65215892 18.5450489 15.45622627 16.70194509 12.890625 14.12109375 C12.13652344 13.36505859 11.38242188 12.60902344 10.60546875 11.83007812 C9.82816406 11.04052734 9.05085938 10.25097656 8.25 9.4375 C7.45722656 8.64408203 6.66445312 7.85066406 5.84765625 7.03320312 C0 1.14025522 0 1.14025522 0 0 Z " fill="#98AB20" transform="translate(82,327)"/>
<path d="M0 0 C2 3 2 3 1.77978516 5.14770508 C1.57659668 5.99228271 1.3734082 6.83686035 1.1640625 7.70703125 C-0.33346069 15.00114702 -0.4544849 22.2656527 -0.625 29.6875 C-0.66329144 31.08270367 -0.7023491 32.47788652 -0.7421875 33.87304688 C-0.83562763 37.24857169 -0.92139416 40.6241027 -1 44 C-4.07411807 39.3888229 -3.33786296 34.73977685 -3.3125 29.3125 C-3.31121094 28.19302979 -3.30992188 27.07355957 -3.30859375 25.92016602 C-3.20576317 16.97840472 -2.17130134 8.67228094 0 0 Z " fill="#858F29" transform="translate(57,216)"/>
<path d="M0 0 C0.99 0 1.98 0 3 0 C3.33 0.99 3.66 1.98 4 3 C-1.99317721 8.6303335 -7.99050468 13.68255723 -15 18 C-15.66 17.67 -16.32 17.34 -17 17 C-16.505 15.515 -16.505 15.515 -16 14 C-15.01 14 -14.02 14 -13 14 C-12.67 13.01 -12.34 12.02 -12 11 C-11.01 11 -10.02 11 -9 11 C-8.67 10.01 -8.34 9.02 -8 8 C-6.68 8 -5.36 8 -4 8 C-4 7.01 -4 6.02 -4 5 C-2.68 5 -1.36 5 0 5 C0 3.35 0 1.7 0 0 Z " fill="#76982E" transform="translate(268,337)"/>
<path d="M0 0 C0.66 0 1.32 0 2 0 C1.38837824 4.78244002 0.00631505 9.0010355 -1.8125 13.4375 C-2.06064453 14.06720703 -2.30878906 14.69691406 -2.56445312 15.34570312 C-4.36441798 19.80210466 -6.54306235 23.86957337 -9 28 C-9.33 28 -9.66 28 -10 28 C-10 26.02 -10 24.04 -10 22 C-9.34 22 -8.68 22 -8 22 C-8 20.68 -8 19.36 -8 18 C-7.34 18 -6.68 18 -6 18 C-4.68 12.72 -3.36 7.44 -2 2 C-1.34 2 -0.68 2 0 2 C0 1.34 0 0.68 0 0 Z " fill="#668633" transform="translate(305,281)"/>
<path d="M0 0 C0.33 0 0.66 0 1 0 C0.67158619 11.05282326 -0.04826355 21.64250176 -2.30078125 32.4765625 C-3.19180839 36.96654284 -3.68193125 41.43735862 -4 46 C-4.33 46 -4.66 46 -5 46 C-5.02691685 43.54159395 -5.04679802 41.08348118 -5.0625 38.625 C-5.07087891 37.92632812 -5.07925781 37.22765625 -5.08789062 36.5078125 C-5.11328125 31.2265625 -5.11328125 31.2265625 -4 29 C-3.79504812 26.83661909 -3.63435725 24.66890995 -3.5 22.5 C-3.11111111 16.22222222 -3.11111111 16.22222222 -2 14 C-1.61076473 11.63049479 -1.2619422 9.2542428 -0.9375 6.875 C-0.76089844 5.59367187 -0.58429688 4.31234375 -0.40234375 2.9921875 C-0.26957031 2.00476563 -0.13679687 1.01734375 0 0 Z " fill="#8EC340" transform="translate(212,12)"/>
<path d="M0 0 C0.66 0 1.32 0 2 0 C1.80664062 0.59941406 1.61328125 1.19882813 1.4140625 1.81640625 C-1.70004415 12.65411404 -2.20705489 23.79911646 -3 35 C-3.66 35 -4.32 35 -5 35 C-5.46553433 22.98662791 -5.09636784 12.41718587 -1 1 C-0.67 0.67 -0.34 0.34 0 0 Z " fill="#69771B" transform="translate(118,219)"/>
<path d="M0 0 C6.66319032 4.1113302 11.58680826 9.53532457 16 16 C16 16.99 16 17.98 16 19 C15.34 19 14.68 19 14 19 C12.33333333 17.33333333 10.66666667 15.66666667 9 14 C8.01 13.67 7.02 13.34 6 13 C6.33 11.68 6.66 10.36 7 9 C6.01 9 5.02 9 4 9 C3.67 7.35 3.34 5.7 3 4 C2.01 4 1.02 4 0 4 C0 2.68 0 1.36 0 0 Z " fill="#73992E" transform="translate(269,151)"/>
<path d="M0 0 C3.68264798 5.52397197 1.69655533 13.38105465 0.48046875 19.69921875 C0.03627766 21.47917874 -0.47284675 23.24282251 -1 25 C-1.99 25 -2.98 25 -4 25 C-3.24595285 16.55467195 -1.62171958 8.31258777 0 0 Z " fill="#709832" transform="translate(309,256)"/>
<path d="M0 0 C3.91939465 3.80411834 7.49102731 7.81576108 11 12 C10.34 13.32 9.68 14.64 9 16 C7.68 15.34 6.36 14.68 5 14 C5 13.34 5 12.68 5 12 C4.34 12 3.68 12 3 12 C2.87625 11.360625 2.7525 10.72125 2.625 10.0625 C2.41875 9.381875 2.2125 8.70125 2 8 C1.34 7.67 0.68 7.34 0 7 C0.2784375 6.1028125 0.2784375 6.1028125 0.5625 5.1875 C1.22093687 2.83591238 1.22093687 2.83591238 0 0 Z " fill="#5D707B" transform="translate(335,71)"/>
<path d="M0 0 C0.66 0 1.32 0 2 0 C2.02686553 1.97909398 2.04633375 3.95828971 2.0625 5.9375 C2.07410156 7.03964844 2.08570313 8.14179688 2.09765625 9.27734375 C2 12 2 12 1 13 C0.855625 14.258125 0.71125 15.51625 0.5625 16.8125 C0.19528498 19.92269994 -0.10965188 22.41320783 -2 25 C-3.31656748 25.69919403 -4.64907194 26.36974958 -6 27 C-5.81824219 26.3915625 -5.63648438 25.783125 -5.44921875 25.15625 C-3.07069555 16.86191269 -1.50135749 8.48639661 0 0 Z " fill="#6B8A27" transform="translate(251,249)"/>
<path d="M0 0 C2.97 0 5.94 0 9 0 C0.49294443 5.67137038 -10.01741546 6.67323782 -20 7 C-20 6.01 -20 5.02 -20 4 C-13.4 3.34 -6.8 2.68 0 2 C0 1.34 0 0.68 0 0 Z " fill="#6B832B" transform="translate(218,367)"/>
<path d="M0 0 C1.32 0.33 2.64 0.66 4 1 C4.33 2.65 4.66 4.3 5 6 C4.01 6.495 4.01 6.495 3 7 C3 7.99 3 8.98 3 10 C1.576875 9.9071875 1.576875 9.9071875 0.125 9.8125 C-1.421875 9.9053125 -1.421875 9.9053125 -3 10 C-3.99 11.485 -3.99 11.485 -5 13 C-5.99 13 -6.98 13 -8 13 C-8 11.35 -8 9.7 -8 8 C-5.34771188 6.92474806 -2.71631546 5.90543849 0 5 C0 3.35 0 1.7 0 0 Z " fill="#AFD10E" transform="translate(142,179)"/>
<path d="M0 0 C2.33944736 0.28730055 4.6739143 0.61936779 7 1 C6.01 1.495 6.01 1.495 5 2 C5 2.99 5 3.98 5 5 C4.01193359 5.60328125 4.01193359 5.60328125 3.00390625 6.21875 C0.60305767 7.94002726 0.60305767 7.94002726 0.71484375 11.46875 C0.76921522 12.81344931 0.8441603 14.15744267 0.9375 15.5 C1.38791959 22.55881441 1.38791959 22.55881441 -0.50952148 24.71679688 C-1.00137939 25.14025391 -1.4932373 25.56371094 -2 26 C-1.86186975 21.85387186 -1.71321141 17.70818838 -1.5625 13.5625 C-1.52318359 12.37849609 -1.48386719 11.19449219 -1.44335938 9.97460938 C-1.40146484 8.84990234 -1.35957031 7.72519531 -1.31640625 6.56640625 C-1.27974854 5.52427979 -1.24309082 4.48215332 -1.20532227 3.40844727 C-1 1 -1 1 0 0 Z " fill="#7B9D8E" transform="translate(215,5)"/>
<path d="M0 0 C1.32 0 2.64 0 4 0 C5.2380014 3.57644848 4.74926071 6.33694766 4 10 C4.66 10 5.32 10 6 10 C6.22174933 11.45635371 6.42698698 12.91522956 6.625 14.375 C6.74101563 15.18710937 6.85703125 15.99921875 6.9765625 16.8359375 C6.98429687 17.55007813 6.99203125 18.26421875 7 19 C6.34 19.66 5.68 20.32 5 21 C4.16267257 17.87605609 3.33082018 14.75068026 2.5 11.625 C2.26152344 10.73554688 2.02304687 9.84609375 1.77734375 8.9296875 C1.55175781 8.07890625 1.32617188 7.228125 1.09375 6.3515625 C0.88427734 5.56604004 0.67480469 4.78051758 0.45898438 3.97119141 C0 2 0 2 0 0 Z " fill="#808C1A" transform="translate(55,266)"/>
<path d="M0 0 C0.99 0.495 0.99 0.495 2 1 C2 4.96 2 8.92 2 13 C2.66 13 3.32 13 4 13 C4 15.64 4 18.28 4 21 C6.97 21 9.94 21 13 21 C9.00889681 22.9955516 7.30013434 23.19546065 3 23 C1.31438733 17.78556404 0.61487302 13.02460865 0.375 7.5625 C0.33632812 6.83095703 0.29765625 6.09941406 0.2578125 5.34570312 C0.16466016 3.56416468 0.08129714 1.78211878 0 0 Z " fill="#B0CC29" transform="translate(157,36)"/>
<path d="M0 0 C1.53271273 4.58798777 0.02911182 6.77944742 -2 11 C-2.66 11 -3.32 11 -4 11 C-4.12375 12.093125 -4.2475 13.18625 -4.375 14.3125 C-5 18 -5 18 -7 21 C-7.33 20.67 -7.66 20.34 -8 20 C-7.62670141 14.56341508 -6.10932457 10.77462698 -3.4375 6.0625 C-2.79683594 4.91910156 -2.15617187 3.77570313 -1.49609375 2.59765625 C-0.75552734 1.31181641 -0.75552734 1.31181641 0 0 Z " fill="#808A23" transform="translate(71,182)"/>
<path d="M0 0 C-0.33 1.65 -0.66 3.3 -1 5 C1.64 6.32 4.28 7.64 7 9 C6.67 9.66 6.34 10.32 6 11 C1.25981099 9.16508812 -3.36413251 7.08058541 -8 5 C-7.360625 4.855625 -6.72125 4.71125 -6.0625 4.5625 C-4.02454854 4.18992819 -4.02454854 4.18992819 -3 3 C-3.99 2.67 -4.98 2.34 -6 2 C-6 1.34 -6 0.68 -6 0 C-2.25 -1.125 -2.25 -1.125 0 0 Z " fill="#82A320" transform="translate(215,178)"/>
<path d="M0 0 C0.1875 2.375 0.1875 2.375 0 5 C-0.99 5.66 -1.98 6.32 -3 7 C-4.66967972 6.3409159 -6.33607955 5.67349161 -8 5 C-10.7336432 5.29519768 -10.7336432 5.29519768 -13 6 C-8.3374496 1.21475091 -6.68645054 -0.14535762 0 0 Z " fill="#B3D111" transform="translate(120,137)"/>
<path d="M0 0 C0.33 0 0.66 0 1 0 C1.99 7.59 2.98 15.18 4 23 C5.65 23.33 7.3 23.66 9 24 C9 24.33 9 24.66 9 25 C5.7 25 2.4 25 -1 25 C-0.505 23.515 -0.505 23.515 0 22 C0.08178114 20.29983156 0.10749501 18.59663703 0.09765625 16.89453125 C0.09443359 15.91162109 0.09121094 14.92871094 0.08789062 13.91601562 C0.07951172 12.89185547 0.07113281 11.86769531 0.0625 10.8125 C0.05798828 9.77673828 0.05347656 8.74097656 0.04882812 7.67382812 C0.0370401 5.11582734 0.02058515 2.55794267 0 0 Z " fill="#7D944F" transform="translate(156,35)"/>
<path d="M0 0 C0.66 0.33 1.32 0.66 2 1 C-1.70090521 4.9252025 -5.54959656 7.94580156 -10 11 C-11.32 10.34 -12.64 9.68 -14 9 C-11.71439353 7.4693001 -9.42237333 5.95034956 -7.125 4.4375 C-6.14853516 3.78104492 -6.14853516 3.78104492 -5.15234375 3.11132812 C-3.47374503 2.01245164 -1.73976613 0.9992182 0 0 Z " fill="#55616B" transform="translate(85,27)"/>
<path d="M0 0 C0.33 0 0.66 0 1 0 C1.17015625 0.83402344 1.3403125 1.66804688 1.515625 2.52734375 C2.87089925 8.82071833 4.3262814 14.43155301 7.42578125 20.09765625 C8 22 8 22 7.10546875 24.24609375 C6.55826172 25.11427734 6.55826172 25.11427734 6 26 C2.04474147 17.14775471 -0.55413528 9.83077035 0 0 Z " fill="#70801B" transform="translate(115,256)"/>
<path d="M0 0 C2.43799475 0.85182949 4.66421904 1.87882514 7 3 C3.5233662 5.14336161 0.78770805 5.21277626 -3.25 5.125 C-4.32765625 5.10695312 -5.4053125 5.08890625 -6.515625 5.0703125 C-7.33546875 5.04710937 -8.1553125 5.02390625 -9 5 C-9 3 -9 3 -7.875 1.375 C-5.11002336 -0.65264953 -3.37538515 -0.38946752 0 0 Z " fill="#8FB323" transform="translate(233,127)"/>
<path d="M0 0 C0.99 0.33 1.98 0.66 3 1 C2.67 2.32 2.34 3.64 2 5 C5.68564084 7.45579697 5.68564084 7.45579697 10 8 C9.67 9.32 9.34 10.64 9 12 C6.21788056 11.62403791 4.4120716 11.32681541 2.1875 9.5625 C1 8 1 8 1 6 C0.34 6 -0.32 6 -1 6 C-0.67 4.02 -0.34 2.04 0 0 Z " fill="#B6D110" transform="translate(101,337)"/>
<path d="M0 0 C-2.54115002 0.95972174 -5.08289457 1.91781494 -7.625 2.875 C-8.33785156 3.14441406 -9.05070313 3.41382812 -9.78515625 3.69140625 C-13.83148122 5.2134184 -17.88737656 6.66372172 -22 8 C-21.67 6.68 -21.34 5.36 -21 4 C-14.25 1.875 -14.25 1.875 -12 3 C-11.67 2.01 -11.34 1.02 -11 0 C-6.97959015 -0.69584017 -3.91736581 -1.1700097 0 0 Z " fill="#3F4C55" transform="translate(138,65)"/>
<path d="M0 0 C0.99 0.33 1.98 0.66 3 1 C0.49653351 5.85967024 -3.08552441 9.27856704 -7 13 C-7.33 11.68 -7.66 10.36 -8 9 C-7.01 9 -6.02 9 -5 9 C-5.33 7.68 -5.66 6.36 -6 5 C-5.34 4.67 -4.68 4.34 -4 4 C-3.34 4.33 -2.68 4.66 -2 5 C-2 4.01 -2 3.02 -2 2 C-1.34 2 -0.68 2 0 2 C0 1.34 0 0.68 0 0 Z " fill="#799A32" transform="translate(280,326)"/>
<path d="M0 0 C1.875 0.1875 1.875 0.1875 4 1 C5.25 3.5625 5.25 3.5625 6 6 C6.99 5.67 7.98 5.34 9 5 C9.6875 6.75 9.6875 6.75 10 9 C8.51953125 11.140625 8.51953125 11.140625 7 13 C5.83072457 11.02237345 4.66464427 9.04285742 3.5 7.0625 C2.8503125 5.96035156 2.200625 4.85820312 1.53125 3.72265625 C0 1 0 1 0 0 Z " fill="#7EA521" transform="translate(237,204)"/>
<path d="M0 0 C1.23086034 3.69258103 0.66728638 4.58206293 -1 8 C-2.7075682 10.92725978 -3.37796943 11.82641007 -6.6875 12.75 C-7.450625 12.8325 -8.21375 12.915 -9 13 C-7.50923566 9.7173068 -5.61379679 7.06922559 -3.375 4.25 C-2.74335938 3.45078125 -2.11171875 2.6515625 -1.4609375 1.828125 C-0.97882812 1.22484375 -0.49671875 0.6215625 0 0 Z M0 5 C2 6 2 6 2 6 Z " fill="#667780" transform="translate(28,74)"/>
<path d="M0 0 C4.02144292 1.37878043 6.73061335 3.31742634 10 6 C11.31138904 6.70885894 12.63777017 7.39456452 14 8 C14 8.66 14 9.32 14 10 C14.66 10 15.32 10 16 10 C16 11.65 16 13.3 16 15 C15.29488281 14.27296875 14.58976563 13.5459375 13.86328125 12.796875 C11.13407122 10.06670229 8.20591837 7.65826954 5.1875 5.25 C3.44015472 3.85581698 1.70521826 2.44540392 0 1 C0 0.67 0 0.34 0 0 Z " fill="#678425" transform="translate(221,189)"/>
<path d="M0 0 C0.60328125 0.34804687 1.2065625 0.69609375 1.828125 1.0546875 C0.04287851 2.25181767 -1.7502778 3.43716029 -3.546875 4.6171875 C-5.04347656 5.60912109 -5.04347656 5.60912109 -6.5703125 6.62109375 C-7.42882812 7.09417969 -8.28734375 7.56726563 -9.171875 8.0546875 C-9.831875 7.7246875 -10.491875 7.3946875 -11.171875 7.0546875 C-10.511875 5.7346875 -9.851875 4.4146875 -9.171875 3.0546875 C-8.511875 3.0546875 -7.851875 3.0546875 -7.171875 3.0546875 C-7.171875 2.3946875 -7.171875 1.7346875 -7.171875 1.0546875 C-2.70649038 -1.17800481 -2.70649038 -1.17800481 0 0 Z " fill="#4F616B" transform="translate(108.171875,75.9453125)"/>
<path d="M0 0 C4.49797113 1.68673918 8.72886302 3.81673892 13 6 C12.67 6.66 12.34 7.32 12 8 C10.58208592 7.54554036 9.16571954 7.08625056 7.75 6.625 C6.96109375 6.36976563 6.1721875 6.11453125 5.359375 5.8515625 C3.13372042 5.04826333 1.09068328 4.10288338 -1 3 C-0.67 2.01 -0.34 1.02 0 0 Z " fill="#91A529" transform="translate(124,358)"/>
<path d="M0 0 C6.75 1.625 6.75 1.625 9 5 C9 5.99 9 6.98 9 8 C9.99 8 10.98 8 12 8 C12.33 8.99 12.66 9.98 13 11 C10 11 10 11 7.51953125 8.84765625 C6.62621094 7.92855469 5.73289062 7.00945312 4.8125 6.0625 C3.91144531 5.14597656 3.01039062 4.22945313 2.08203125 3.28515625 C0 1 0 1 0 0 Z " fill="#91A125" transform="translate(82,327)"/>
<path d="M0 0 C2.31 0.66 4.62 1.32 7 2 C7 2.66 7 3.32 7 4 C3.49223216 5.60355101 0.85645121 6.22036864 -3 6 C-2.42655063 3.13275314 -2.1385485 2.1385485 0 0 Z " fill="#91B42E" transform="translate(227,361)"/>
<path d="M0 0 C0.33 0 0.66 0 1 0 C1 2.31 1 4.62 1 7 C1.99 7.33 2.98 7.66 4 8 C3.34 11.63 2.68 15.26 2 19 C1.67 19 1.34 19 1 19 C0.63752129 16.39674384 0.28472345 13.79279598 -0.0625 11.1875 C-0.2181543 10.08051758 -0.2181543 10.08051758 -0.37695312 8.95117188 C-0.82086566 5.56825221 -1.09314992 3.27944975 0 0 Z " fill="#77982B" transform="translate(250,225)"/>
<path d="M0 0 C2.10478604 0.11409682 4.20884577 0.24165361 6.3125 0.375 C7.48425781 0.44460938 8.65601563 0.51421875 9.86328125 0.5859375 C13 1 13 1 16 3 C16 3.66 16 4.32 16 5 C10.34979382 4.39891424 5.33835539 2.92471317 0 1 C0 0.67 0 0.34 0 0 Z " fill="#83962C" transform="translate(136,366)"/>
<path d="M0 0 C0 0.66 0 1.32 0 2 C-1.65 2.33 -3.3 2.66 -5 3 C-5 3.99 -5 4.98 -5 6 C-7.97 5.505 -7.97 5.505 -11 5 C-8.19620232 0.57295103 -5.22955941 -1.74318647 0 0 Z " fill="#B4D011" transform="translate(115,142)"/>
<path d="M0 0 C0.66 0.33 1.32 0.66 2 1 C1.67 2.65 1.34 4.3 1 6 C0.34 6 -0.32 6 -1 6 C-1.33 5.01 -1.66 4.02 -2 3 C-1.34 2.01 -0.68 1.02 0 0 Z M-7 7 C-6.34 7.33 -5.68 7.66 -5 8 C-5.33 9.65 -5.66 11.3 -6 13 C-7.65 13.33 -9.3 13.66 -11 14 C-10.39816251 11.97954558 -9.72693904 9.97888961 -9 8 C-8.34 7.67 -7.68 7.34 -7 7 Z " fill="#79909F" transform="translate(38,66)"/>
<path d="M0 0 C0.33 0 0.66 0 1 0 C1.4375 3.125 1.4375 3.125 1 7 C-1.06581634 9.38682039 -3.41608882 11.20049043 -6 13 C-6 9.34899606 -4.9552415 7.89878202 -3.0625 4.8125 C-2.51722656 3.91144531 -1.97195312 3.01039063 -1.41015625 2.08203125 C-0.71212891 1.05142578 -0.71212891 1.05142578 0 0 Z " fill="#678026" transform="translate(244,276)"/>
<path d="M0 0 C0.99 0 1.98 0 3 0 C3 6.93 3 13.86 3 21 C1.28632943 17.57265885 0.74642947 16.42144826 0.5859375 12.890625 C0.54726562 12.13652344 0.50859375 11.38242187 0.46875 10.60546875 C0.4378125 9.82816406 0.406875 9.05085937 0.375 8.25 C0.33632812 7.45722656 0.29765625 6.66445312 0.2578125 5.84765625 C0.163892 3.89880584 0.08087178 1.94943549 0 0 Z " fill="#B8D021" transform="translate(153,5)"/>
<path d="M0 0 C0.66 0.33 1.32 0.66 2 1 C1.01 1.33 0.02 1.66 -1 2 C-1 2.66 -1 3.32 -1 4 C-7.3778552 5.17293889 -13.50321562 6.29530838 -20 6 C-20 5.67 -20 5.34 -20 5 C-18.97519531 4.80664062 -17.95039063 4.61328125 -16.89453125 4.4140625 C-15.53380399 4.15130137 -14.17312967 3.88826602 -12.8125 3.625 C-11.80219727 3.43550781 -11.80219727 3.43550781 -10.77148438 3.2421875 C-7.75826039 2.65424136 -4.98537779 1.99405536 -2.13671875 0.8359375 C-1.07904297 0.42214844 -1.07904297 0.42214844 0 0 Z " fill="#5D7121" transform="translate(209,309)"/>
<path d="M0 0 C4.47726973 2.95668756 7.59983652 5.05848696 10 10 C7.03 9.505 7.03 9.505 4 9 C3.67 7.35 3.34 5.7 3 4 C2.01 4 1.02 4 0 4 C0 2.68 0 1.36 0 0 Z " fill="#6C8D2B" transform="translate(269,151)"/>
<path d="M0 0 C0.99 0.33 1.98 0.66 3 1 C1.23867546 5.00301032 -1.26132483 8.6028977 -4 12 C-4.33 12 -4.66 12 -5 12 C-5 10.35 -5 8.7 -5 7 C-3.68 6.67 -2.36 6.34 -1 6 C-1.020625 5.195625 -1.04125 4.39125 -1.0625 3.5625 C-1 1 -1 1 0 0 Z " fill="#719132" transform="translate(288,315)"/>
<path d="M0 0 C2 3 2 3 1.79296875 5.59375 C1.59316406 6.5528125 1.39335938 7.511875 1.1875 8.5 C0.99542969 9.4590625 0.80335937 10.418125 0.60546875 11.40625 C0 14 0 14 -1 17 C-1.66 16.67 -2.32 16.34 -3 16 C-2.01 10.72 -1.02 5.44 0 0 Z " fill="#757E23" transform="translate(57,216)"/>
<path d="M0 0 C0.33 0.66 0.66 1.32 1 2 C0.67 2.66 0.34 3.32 0 4 C0.99 3.67 1.98 3.34 3 3 C3 3.66 3 4.32 3 5 C2.01 5 1.02 5 0 5 C0 5.99 0 6.98 0 8 C-1.98 8.66 -3.96 9.32 -6 10 C-4.6302836 6.00499382 -2.74277578 3.19990508 0 0 Z " fill="#8D9C1C" transform="translate(81,167)"/>
<path d="M0 0 C0.66 0.33 1.32 0.66 2 1 C1.34 1.66 0.68 2.32 0 3 C0.33 3.66 0.66 4.32 1 5 C0.67 5.66 0.34 6.32 0 7 C-1.65919896 7.36871088 -3.32774271 7.69595322 -5 8 C-6.6792238 8.63437344 -8.35008418 9.29289322 -10 10 C-9.34 9.01 -8.68 8.02 -8 7 C-7.34 7 -6.68 7 -6 7 C-5.67 6.01 -5.34 5.02 -5 4 C-3.37667033 2.61423077 -1.71275535 1.27358732 0 0 Z " fill="#7E8E1F" transform="translate(105,143)"/>
<path d="M0 0 C5.05255964 0.63156995 9.29593201 2.13459373 14 4 C12.375 5.125 12.375 5.125 10 6 C6.8125 5.3125 6.8125 5.3125 4 4 C3.67 3.01 3.34 2.02 3 1 C2.01 0.67 1.02 0.34 0 0 Z " fill="#657C23" transform="translate(216,122)"/>
<path d="M0 0 C3.81684226 1.55500981 6.19195732 4.03595495 9 7 C6 8 6 8 2 8 C1.01 8.495 1.01 8.495 0 9 C0.33 8.01 0.66 7.02 1 6 C1.66 6 2.32 6 3 6 C2.505 5.566875 2.01 5.13375 1.5 4.6875 C0 3 0 3 0 0 Z " fill="#556771" transform="translate(304,43)"/>
<path d="M0 0 C0.33 1.32 0.66 2.64 1 4 C1.66 4 2.32 4 3 4 C2.67 4.66 2.34 5.32 2 6 C1.21625 5.95875 0.4325 5.9175 -0.375 5.875 C-3.16116119 5.71271266 -3.16116119 5.71271266 -5 8 C-5 6.68 -5 5.36 -5 4 C-4.360625 3.71125 -3.72125 3.4225 -3.0625 3.125 C-0.84793921 2.17176549 -0.84793921 2.17176549 0 0 Z M-6 8 C-5.67 8.99 -5.34 9.98 -5 11 C-5.66 11.66 -6.32 12.32 -7 13 C-6.67 11.35 -6.34 9.7 -6 8 Z " fill="#BBD30A" transform="translate(77,178)"/>
<path d="M0 0 C-1 2 -1 2 -2.890625 2.81640625 C-6.90241296 4.08503456 -10.83476665 5.32818817 -15 6 C-5.32446809 -2.25265957 -5.32446809 -2.25265957 0 0 Z " fill="#899B2B" transform="translate(131,131)"/>
<path d="M0 0 C1.65 0.33 3.3 0.66 5 1 C2.66656647 4.50015029 0.83082186 5.40382422 -3 7 C-3.66 6.67 -4.32 6.34 -5 6 C-3.35 4.02 -1.7 2.04 0 0 Z " fill="#677783" transform="translate(51,51)"/>
<path d="M0 0 C4.82360189 -0.19294408 8.49646738 0.24252386 13 2 C9.52713178 4.10852713 9.52713178 4.10852713 6.875 3.5625 C6.25625 3.376875 5.6375 3.19125 5 3 C4.01 3.495 4.01 3.495 3 4 C2.01 3.34 1.02 2.68 0 2 C0 1.34 0 0.68 0 0 Z " fill="#61727C" transform="translate(232,9)"/>
<path d="M0 0 C0.515625 0.37125 1.03125 0.7425 1.5625 1.125 C1.5625 1.455 1.5625 1.785 1.5625 2.125 C-0.4175 2.125 -2.3975 2.125 -4.4375 2.125 C-4.4375 2.785 -4.4375 3.445 -4.4375 4.125 C-5.7575 4.125 -7.0775 4.125 -8.4375 4.125 C-8.4375 4.785 -8.4375 5.445 -8.4375 6.125 C-9.0975 5.795 -9.7575 5.465 -10.4375 5.125 C-10.1075 3.805 -9.7775 2.485 -9.4375 1.125 C-3.0375 -1.09038462 -3.0375 -1.09038462 0 0 Z " fill="#98C923" transform="translate(250.4375,352.875)"/>
<path d="M0 0 C0.66 0 1.32 0 2 0 C4.125 4.625 4.125 4.625 3 8 C0.525 7.01 0.525 7.01 -2 6 C-2 4.68 -2 3.36 -2 2 C-1.34 2 -0.68 2 0 2 C0 1.34 0 0.68 0 0 Z " fill="#9EB712" transform="translate(122,280)"/>
<path d="M0 0 C0.66 0 1.32 0 2 0 C2 3.96 2 7.92 2 12 C1.01 12 0.02 12 -1 12 C-0.67 8.04 -0.34 4.08 0 0 Z " fill="#7D9D32" transform="translate(251,249)"/>
<path d="M0 0 C0 3.19610552 -0.54671542 4.41717626 -2 7.1875 C-2.37125 7.90292969 -2.7425 8.61835938 -3.125 9.35546875 C-3.41375 9.89816406 -3.7025 10.44085938 -4 11 C-4.33 11 -4.66 11 -5 11 C-5 8.03 -5 5.06 -5 2 C-3.35 1.34 -1.7 0.68 0 0 Z " fill="#7D901C" transform="translate(125,208)"/>
<path d="M0 0 C1.65 0 3.3 0 5 0 C5 0.99 5 1.98 5 3 C2.5 5.1875 2.5 5.1875 0 7 C-0.66 6.67 -1.32 6.34 -2 6 C-1.34 4.02 -0.68 2.04 0 0 Z " fill="#839A1A" transform="translate(139,188)"/>
<path d="M0 0 C3.94139078 1.66751148 6.7892812 4.22710649 10 7 C9.01 7.33 8.02 7.66 7 8 C6.01 7.34 5.02 6.68 4 6 C4 5.34 4 4.68 4 4 C2.68 4 1.36 4 0 4 C0 2.68 0 1.36 0 0 Z " fill="#6F8F2C" transform="translate(259,143)"/>
<path d="M0 0 C6.43681228 0.51085812 11.95942424 1.72942897 18 4 C14.08263419 5.1700097 11.02040985 4.69584017 7 4 C7 3.34 7 2.68 7 2 C4.69 1.67 2.38 1.34 0 1 C0 0.67 0 0.34 0 0 Z " fill="#7F9833" transform="translate(201,119)"/>
<path d="M0 0 C2.79958342 4.19937513 3.11598878 6.09705438 3.0625 11.125 C3.05347656 12.22070312 3.04445313 13.31640625 3.03515625 14.4453125 C3.02355469 15.28835937 3.01195312 16.13140625 3 17 C1.21297356 13.65022979 0.56019113 10.76128332 0 7 C-0.33 6.01 -0.66 5.02 -1 4 C-0.5625 1.8125 -0.5625 1.8125 0 0 Z " fill="#8CBB39" transform="translate(305,210)"/>
<path d="M0 0 C0 1.32 0 2.64 0 4 C-1.32 4 -2.64 4 -4 4 C-5.34164079 4.2981424 -6.67851173 4.62243192 -8 5 C-6.19780722 -0.02039417 -5.34443412 -1.60333024 0 0 Z " fill="#A0B119" transform="translate(80,177)"/>
<path d="M0 0 C4.67105792 1.55701931 8.08705685 4.08447373 12 7 C10.140625 7.58203125 10.140625 7.58203125 8 8 C5.75 6.6875 5.75 6.6875 4 5 C4 4.34 4 3.68 4 3 C2.68 2.67 1.36 2.34 0 2 C0 1.34 0 0.68 0 0 Z " fill="#647C2A" transform="translate(247,135)"/>
<path d="M0 0 C2.72426311 2.35277269 3.8141763 4.62496331 5 8 C3.68 8 2.36 8 1 8 C-1.125 3.375 -1.125 3.375 0 0 Z M0 9 C0.66 9 1.32 9 2 9 C1.67 9.66 1.34 10.32 1 11 C0.67 10.34 0.34 9.68 0 9 Z " fill="#58666F" transform="translate(356,99)"/>
<path d="M0 0 C0.33 0.66 0.66 1.32 1 2 C1.66 2 2.32 2 3 2 C3.22174933 3.45635371 3.42698698 4.91522956 3.625 6.375 C3.74101563 7.18710937 3.85703125 7.99921875 3.9765625 8.8359375 C3.98429687 9.55007813 3.99203125 10.26421875 4 11 C3.34 11.66 2.68 12.32 2 13 C0.24252386 8.49646738 -0.19294408 4.82360189 0 0 Z " fill="#8C9629" transform="translate(58,274)"/>
<path d="M0 0 C3.06261493 1.02087164 4.05779403 1.52810149 6 4 C6.6875 6.6875 6.6875 6.6875 7 9 C6.01 9 5.02 9 4 9 C0 2.25 0 2.25 0 0 Z " fill="#8F9C29" transform="translate(69,306)"/>
<path d="M0 0 C0.680625 0.4125 1.36125 0.825 2.0625 1.25 C5.35191348 3.20965058 8.67160863 5.1073853 12 7 C12 7.33 12 7.66 12 8 C8.28400809 8.20086443 7.22791555 8.1519437 4 6 C4 5.34 4 4.68 4 4 C3.01 4 2.02 4 1 4 C0.67 2.68 0.34 1.36 0 0 Z " fill="#65771B" transform="translate(139,299)"/>
<path d="M0 0 C2.5 2.3125 2.5 2.3125 5 5 C5 5.99 5 6.98 5 8 C3.68 8 2.36 8 1 8 C0.67 5.36 0.34 2.72 0 0 Z " fill="#55646C" transform="translate(346,85)"/>
<path d="M0 0 C2.475 0.495 2.475 0.495 5 1 C5 1.99 5 2.98 5 4 C5.94726954 5.69719127 6.94228261 7.36935236 8 9 C7.01 9 6.02 9 5 9 C3.61328125 7.5390625 3.61328125 7.5390625 2.3125 5.625 C1.65701172 4.68527344 1.65701172 4.68527344 0.98828125 3.7265625 C0 2 0 2 0 0 Z " fill="#8D9A2B" transform="translate(75,316)"/>
<path d="M0 0 C0.66 0.33 1.32 0.66 2 1 C2 1.99 2 2.98 2 4 C-1.82320557 5.42258812 -4.91281305 6.24042276 -9 6 C-6.59027489 3.59027489 -4.04587368 2.49053393 -1 1 C-0.67 0.67 -0.34 0.34 0 0 Z " fill="#6E8924" transform="translate(220,303)"/>
<path d="M0 0 C0.66 0.33 1.32 0.66 2 1 C3.17169312 4.98375661 3.08089427 8.87439224 3 13 C1.24905885 10.37358828 0.54725362 8.89308789 -0.1875 5.9375 C-0.36667969 5.24527344 -0.54585937 4.55304688 -0.73046875 3.83984375 C-1 2 -1 2 0 0 Z " fill="#617E21" transform="translate(246,215)"/>
<path d="M0 0 C-1.38290829 1.98793067 -2.56167198 2.88705658 -4.91015625 3.4921875 C-7.0625 3.8125 -7.0625 3.8125 -11 4 C-11.66 3.34 -12.32 2.68 -13 2 C-8.50343896 -0.24828052 -4.92127034 -0.16682272 0 0 Z " fill="#9EB528" transform="translate(142,127)"/>
<path d="M0 0 C0 4.35251187 -2.06165511 5.92809398 -5 9 C-7.3125 9.875 -7.3125 9.875 -9 10 C-6.43571997 5.82117329 -3.98069267 2.87494471 0 0 Z " fill="#5B6871" transform="translate(38,64)"/>
<path d="M0 0 C1.2065625 0.0309375 1.2065625 0.0309375 2.4375 0.0625 C1.4475 0.5575 1.4475 0.5575 0.4375 1.0625 C0.4375 2.0525 0.4375 3.0425 0.4375 4.0625 C-2.0625 5.75 -2.0625 5.75 -4.5625 7.0625 C-3.5234375 0.0859375 -3.5234375 0.0859375 0 0 Z " fill="#7C97A3" transform="translate(219.5625,5.9375)"/>
<path d="M0 0 C1.32 0 2.64 0 4 0 C4.33 1.32 4.66 2.64 5 4 C3.02 4.99 3.02 4.99 1 6 C0.67 4.02 0.34 2.04 0 0 Z " fill="#92AA16" transform="translate(124,202)"/>
<path d="M0 0 C1.17539996 0.92652701 2.34010577 1.86663387 3.5 2.8125 C4.1496875 3.33457031 4.799375 3.85664062 5.46875 4.39453125 C7 6 7 6 7 9 C1.21538462 5.67692308 1.21538462 5.67692308 0.125 2.25 C0.08375 1.5075 0.0425 0.765 0 0 Z " fill="#536068" transform="translate(319,55)"/>
<path d="M0 0 C0.66 1.32 1.32 2.64 2 4 C4.97 4 7.94 4 11 4 C7.00975253 5.99512373 5.30913667 6.28727578 1 6 C0 5 0 5 -0.0625 2.4375 C-0.041875 1.633125 -0.02125 0.82875 0 0 Z " fill="#A1B735" transform="translate(159,53)"/>
<path d="M0 0 C2 3 2 3 3 5 C5.52733235 5.65555119 5.52733235 5.65555119 8 6 C8 6.33 8 6.66 8 7 C4.7 7 1.4 7 -2 7 C-1.67 6.01 -1.34 5.02 -1 4 C-0.65772583 2.66893378 -0.32248257 1.33599921 0 0 Z " fill="#3A4644" transform="translate(157,53)"/>
<path d="M0 0 C2.64 0 5.28 0 8 0 C8 0.66 8 1.32 8 2 C5.29120665 3.35439668 2.99066732 3.06501451 0 3 C0 2.01 0 1.02 0 0 Z " fill="#8BAC2F" transform="translate(198,371)"/>
<path d="M0 0 C0.99 0.33 1.98 0.66 3 1 C2.34 1 1.68 1 1 1 C0.9175 1.61875 0.835 2.2375 0.75 2.875 C0 5 0 5 -2.0625 6.25 C-3.0215625 6.62125 -3.0215625 6.62125 -4 7 C-4 5.68 -4 4.36 -4 3 C-3.01 3 -2.02 3 -1 3 C-0.67 2.01 -0.34 1.02 0 0 Z " fill="#87AB32" transform="translate(256,348)"/>
<path d="M0 0 C2 2 2 2 2.125 5.625 C2.08375 6.73875 2.0425 7.8525 2 9 C1.01 9 0.02 9 -1 9 C-0.67 6.03 -0.34 3.06 0 0 Z " fill="#7AA436" transform="translate(306,272)"/>
<path d="M0 0 C0.66 0 1.32 0 2 0 C1.67 3.63 1.34 7.26 1 11 C-1.35953094 8.64046906 -1.49141413 7.22104383 -2 4 C-1.34 4 -0.68 4 0 4 C0 2.68 0 1.36 0 0 Z " fill="#A1B01E" transform="translate(56,256)"/>
<path d="M0 0 C0 0.66 0 1.32 0 2 C-0.66 2 -1.32 2 -2 2 C-2 2.66 -2 3.32 -2 4 C-2.66 4 -3.32 4 -4 4 C-4.33 4.99 -4.66 5.98 -5 7 C-5.99 6.34 -6.98 5.68 -8 5 C-3.375 0 -3.375 0 0 0 Z " fill="#A0B424" transform="translate(97,153)"/>
<path d="M0 0 C0.99 0.33 1.98 0.66 3 1 C0.78065836 4.32901247 -0.34683329 4.75023244 -4 6 C-3.6875 4.125 -3.6875 4.125 -3 2 C-2.01 1.34 -1.02 0.68 0 0 Z M-6 6 C-5.01 6.495 -5.01 6.495 -4 7 C-4.99 7.495 -4.99 7.495 -6 8 C-6 7.34 -6 6.68 -6 6 Z " fill="#B7D30C" transform="translate(101,149)"/>
<path d="M0 0 C-1.36983503 3.16115776 -1.9890638 3.9927092 -5 6 C-7.1875 5.625 -7.1875 5.625 -9 5 C-7.87926138 4.16094435 -6.75325453 3.32892169 -5.625 2.5 C-4.99851562 2.0359375 -4.37203125 1.571875 -3.7265625 1.09375 C-2 0 -2 0 0 0 Z " fill="#819226" transform="translate(116,137)"/>
<path d="M0 0 C3.5625 0.25 3.5625 0.25 6.5625 2.25 C5.12609829 2.44573608 3.68830496 2.63127816 2.25 2.8125 C1.44949219 2.91691406 0.64898437 3.02132812 -0.17578125 3.12890625 C-2.4375 3.25 -2.4375 3.25 -5.4375 2.25 C-3.4375 0.25 -3.4375 0.25 0 0 Z " fill="#85AA2A" transform="translate(233.4375,128.75)"/>
<path d="M0 0 C0.66 0.33 1.32 0.66 2 1 C1.835 1.763125 1.67 2.52625 1.5 3.3125 C0.90854604 6.03596236 0.90854604 6.03596236 1 9 C-0.65 7.02 -2.3 5.04 -4 3 C-2.68 2.01 -1.36 1.02 0 0 Z " fill="#4B5A64" transform="translate(300,105)"/>
<path d="M0 0 C0.99 0.66 1.98 1.32 3 2 C-0.465 4.97 -0.465 4.97 -4 8 C-3.67 6.35 -3.34 4.7 -3 3 C-2.01 2.67 -1.02 2.34 0 2 C0 1.34 0 0.68 0 0 Z " fill="#434E55" transform="translate(78,96)"/>
<path d="M0 0 C0.66 0 1.32 0 2 0 C1.47731534 2.76276177 0.89130413 5.3260876 0 8 C-0.66 8 -1.32 8 -2 8 C-2.6875 6.25 -2.6875 6.25 -3 4 C-1.6875 1.75 -1.6875 1.75 0 0 Z " fill="#7E95A5" transform="translate(15,93)"/>
<path d="M0 0 C1.98 1.65 3.96 3.3 6 5 C2.98968256 5.93423645 2.13349732 6.04449911 -1 5 C-0.67 3.35 -0.34 1.7 0 0 Z " fill="#526068" transform="translate(329,65)"/>
<path d="M0 0 C-0.66 0 -1.32 0 -2 0 C-1.67 0.99 -1.34 1.98 -1 3 C-4.62326739 4.2077558 -5.64146369 3.54311128 -9 2 C-4 -1.33333333 -4 -1.33333333 0 0 Z " fill="#4E5B63" transform="translate(130,10)"/>
<path d="M0 0 C2.97 0.33 5.94 0.66 9 1 C8.67 2.65 8.34 4.3 8 6 C1.125 2.25 1.125 2.25 0 0 Z " fill="#8D9E24" transform="translate(103,347)"/>
<path d="M0 0 C2.475 0.495 2.475 0.495 5 1 C5.75 2.75 5.75 2.75 6 5 C4.0625 7.25 4.0625 7.25 2 9 C2.33 7.02 2.66 5.04 3 3 C2.01 2.67 1.02 2.34 0 2 C0 1.34 0 0.68 0 0 Z " fill="#98CA26" transform="translate(243,208)"/>
<path d="M0 0 C0.33 0 0.66 0 1 0 C0.40546697 9.59453303 0.40546697 9.59453303 -3 13 C-2.52060632 8.28596212 -2.03165952 4.33420699 0 0 Z " fill="#6A7124" transform="translate(61,203)"/>
<path d="M0 0 C0.99 0 1.98 0 3 0 C4.125 3.75 4.125 3.75 3 6 C1.68 6 0.36 6 -1 6 C-0.67 4.02 -0.34 2.04 0 0 Z " fill="#BDD309" transform="translate(67,193)"/>
<path d="M0 0 C0.99 0 1.98 0 3 0 C3 0.66 3 1.32 3 2 C3.99 1.67 4.98 1.34 6 1 C6.99 1.99 7.98 2.98 9 4 C5.7 3.67 2.4 3.34 -1 3 C-0.67 2.01 -0.34 1.02 0 0 Z " fill="#7C919F" transform="translate(219,58)"/>
<path d="M0 0 C0.66 0 1.32 0 2 0 C2.93065133 2.60582371 3.14917407 3.64198224 2.0625 6.25 C1.5365625 7.11625 1.5365625 7.11625 1 8 C-1 5 -1 5 -0.625 2.3125 C-0.41875 1.549375 -0.2125 0.78625 0 0 Z " fill="#B9D307" transform="translate(85,321)"/>
<path d="M0 0 C1.32 0.33 2.64 0.66 4 1 C3.67 3.64 3.34 6.28 3 9 C2.34 9 1.68 9 1 9 C0.67 6.03 0.34 3.06 0 0 Z " fill="#BFD115" transform="translate(65,291)"/>
<path d="M0 0 C0.33 0 0.66 0 1 0 C1.33 2.31 1.66 4.62 2 7 C1.01 7.66 0.02 8.32 -1 9 C-1.80967438 6.08517222 -2.21845993 4.53886783 -1.0625 1.6875 C-0.711875 1.130625 -0.36125 0.57375 0 0 Z " fill="#BDD020" transform="translate(60,212)"/>
<path d="M0 0 C0.99 0 1.98 0 3 0 C2.34 2.64 1.68 5.28 1 8 C0.34 7.67 -0.32 7.34 -1 7 C-0.67 4.69 -0.34 2.38 0 0 Z " fill="#97A426" transform="translate(64,195)"/>
<path d="M0 0 C1.65 0 3.3 0 5 0 C5.33 0.99 5.66 1.98 6 3 C6.66 3.33 7.32 3.66 8 4 C8 4.66 8 5.32 8 6 C4.08597051 4.73058503 2.20927127 3.48832306 0 0 Z " fill="#9CC829" transform="translate(225,190)"/>
<path d="M0 0 C5.57142857 5.14285714 5.57142857 5.14285714 6 9 C5.01 9 4.02 9 3 9 C2.01 6.03 1.02 3.06 0 0 Z " fill="#5B7528" transform="translate(286,170)"/>
<path d="M0 0 C3.16115776 1.36983503 3.9927092 1.9890638 6 5 C5.67 5.99 5.34 6.98 5 8 C2.5 6.25 2.5 6.25 0 4 C0 2.68 0 1.36 0 0 Z " fill="#94C236" transform="translate(282,168)"/>
<path d="M0 0 C0.99 0.33 1.98 0.66 3 1 C0.25 5.875 0.25 5.875 -2 7 C-2 5.35 -2 3.7 -2 2 C-1.34 2 -0.68 2 0 2 C0 1.34 0 0.68 0 0 Z " fill="#698D2D" transform="translate(280,326)"/>
<path d="M0 0 C0.66 0.33 1.32 0.66 2 1 C1.34 2.65 0.68 4.3 0 6 C-0.66 6 -1.32 6 -2 6 C-2.33 7.32 -2.66 8.64 -3 10 C-3.36923077 3.47692308 -3.36923077 3.47692308 -1.5 1.0625 C-1.005 0.711875 -0.51 0.36125 0 0 Z " fill="#8EC626" transform="translate(299,293)"/>
<path d="M0 0 C2.12508244 3.18762365 2.5020163 5.26512223 3 9 C2.01 9.495 2.01 9.495 1 10 C1 8.68 1 7.36 1 6 C0.34 6 -0.32 6 -1 6 C-1.042721 4.33388095 -1.04063832 2.66617115 -1 1 C-0.67 0.67 -0.34 0.34 0 0 Z " fill="#B3D10E" transform="translate(115,266)"/>
<path d="M0 0 C0.66 0.33 1.32 0.66 2 1 C1.34 2.65 0.68 4.3 0 6 C-1.32 6 -2.64 6 -4 6 C-2.25 1.125 -2.25 1.125 0 0 Z " fill="#B9D018" transform="translate(85,165)"/>
<path d="M0 0 C-3.4352048 2.29013653 -4.985331 2.17842973 -9 2 C-9.33 1.34 -9.66 0.68 -10 0 C-6.30581799 -1.231394 -3.7943739 -0.64432764 0 0 Z " fill="#8EA528" transform="translate(162,121)"/>
<path d="M0 0 C1.98 0 3.96 0 6 0 C3.63707344 2.52588702 2.33537489 3.88820837 -1 5 C-0.67 3.35 -0.34 1.7 0 0 Z " fill="#4F616A" transform="translate(91,84)"/>
<path d="M0 0 C0.66 0.99 1.32 1.98 2 3 C1.67 3.99 1.34 4.98 1 6 C-0.65 6.33 -2.3 6.66 -4 7 C-2.79618552 4.50638429 -1.54571278 2.31856917 0 0 Z " fill="#5E6E79" transform="translate(23,80)"/>
<path d="M0 0 C1.65 1.65 3.3 3.3 5 5 C4.01 6.485 4.01 6.485 3 8 C2.01 7.67 1.02 7.34 0 7 C0.2784375 6.1028125 0.2784375 6.1028125 0.5625 5.1875 C1.22093687 2.83591238 1.22093687 2.83591238 0 0 Z " fill="#4E5C63" transform="translate(335,71)"/>
<path d="M0 0 C0.66 0 1.32 0 2 0 C2.625 2.375 2.625 2.375 3 5 C2.34 5.66 1.68 6.32 1 7 C0.34 5.02 -0.32 3.04 -1 1 C-0.67 0.67 -0.34 0.34 0 0 Z " fill="#B0D205" transform="translate(130,295)"/>
<path d="M0 0 C1.32 0.33 2.64 0.66 4 1 C4.33 3.31 4.66 5.62 5 8 C2.74754119 5.31158141 1.11786042 3.35358125 0 0 Z " fill="#698327" transform="translate(237,204)"/>
<path d="M0 0 C0 3 0 3 -1 6 C-3.5625 7.1875 -3.5625 7.1875 -6 8 C-4.55746343 4.63408134 -2.66735273 2.48952921 0 0 Z " fill="#788422" transform="translate(88,159)"/>
<path d="M0 0 C0.99 0.33 1.98 0.66 3 1 C2.34 2.32 1.68 3.64 1 5 C-0.65 4.67 -2.3 4.34 -4 4 C-2.68 2.68 -1.36 1.36 0 0 Z " fill="#5B6B74" transform="translate(75,33)"/>
<path d="M0 0 C0 1.65 0 3.3 0 5 C-1.32 5.33 -2.64 5.66 -4 6 C-4 4.68 -4 3.36 -4 2 C-1 0 -1 0 0 0 Z " fill="#B2D10C" transform="translate(125,204)"/>
<path d="M0 0 C1.42944945 2.35438733 2.08661261 3.48032433 1.625 6.25 C1.41875 6.8275 1.2125 7.405 1 8 C0.34 8 -0.32 8 -1 8 C-1.625 5.125 -1.625 5.125 -2 2 C-1.34 1.34 -0.68 0.68 0 0 Z " fill="#99CA24" transform="translate(238,196)"/>
<path d="M0 0 C0.99 0 1.98 0 3 0 C3 1.32 3 2.64 3 4 C2.34 4 1.68 4 1 4 C0.67 4.99 0.34 5.98 0 7 C-0.93423645 3.98968256 -1.04449911 3.13349732 0 0 Z " fill="#B3D00F" transform="translate(123,198)"/>
<path d="M0 0 C2.64 0 5.28 0 8 0 C6.35 1.32 4.7 2.64 3 4 C1 3 1 3 0 0 Z " fill="#7A901B" transform="translate(144,185)"/>
<path d="M0 0 C2.72426311 2.35277269 3.8141763 4.62496331 5 8 C3.0625 7.375 3.0625 7.375 1 6 C0.25 2.875 0.25 2.875 0 0 Z " fill="#607728" transform="translate(292,179)"/>
<path d="M0 0 C0.66 0.33 1.32 0.66 2 1 C1.38125 1.2475 0.7625 1.495 0.125 1.75 C-2.35068687 3.20628639 -2.95125002 4.37812506 -4 7 C-4.33 6.01 -4.66 5.02 -5 4 C-3 1 -3 1 0 0 Z " fill="#414E59" transform="translate(72,104)"/>
<path d="M0 0 C1 3 1 3 0.25 5.125 C-1 7 -1 7 -4 8 C-2.87548273 5.0280615 -1.77706209 2.66559313 0 0 Z " fill="#5A666F" transform="translate(12,95)"/>
<path d="M0 0 C0.99 0.66 1.98 1.32 3 2 C1.68 3.32 0.36 4.64 -1 6 C-1.99 5.67 -2.98 5.34 -4 5 C-2.68 3.35 -1.36 1.7 0 0 Z " fill="#46555E" transform="translate(87,88)"/>
<path d="M0 0 C-0.33 0.99 -0.66 1.98 -1 3 C-3.31 2.67 -5.62 2.34 -8 2 C-4.77208445 -0.1519437 -3.71599191 -0.20086443 0 0 Z " fill="#465258" transform="translate(139,7)"/>
</svg>
