<?xml version="1.0" standalone="no"?>
<!DOCTYPE svg PUBLIC "-//W3C//DTD SVG 20010904//EN"
 "http://www.w3.org/TR/2001/REC-SVG-20010904/DTD/svg10.dtd">
<svg version="1.0" xmlns="http://www.w3.org/2000/svg"
 width="748.000000pt" height="640.000000pt" viewBox="0 0 748.000000 640.000000"
 preserveAspectRatio="xMidYMid meet">

<g transform="translate(0.000000,640.000000) scale(0.100000,-0.100000)"
fill="#000000" stroke="none">
<path d="M3358 6395 c-2 -2 -84 -18 -183 -34 -99 -17 -220 -44 -270 -60 -49
-16 -137 -44 -194 -61 -58 -18 -191 -71 -296 -120 -766 -352 -1370 -1005
-1665 -1800 -65 -176 -98 -296 -155 -560 -31 -144 -48 -415 -42 -650 6 -193
12 -255 42 -435 72 -426 223 -822 450 -1180 112 -177 229 -330 243 -321 10 6
23 -3 42 -29 11 -15 7 -14 -13 4 -15 14 -27 21 -27 17 0 -19 139 -172 246
-272 128 -120 177 -157 99 -74 -39 42 -43 49 -18 31 39 -27 75 -70 67 -82 -7
-12 30 -44 161 -137 205 -146 240 -168 421 -264 180 -96 531 -236 643 -258 25
-5 98 -21 161 -36 180 -42 191 -43 325 -43 81 0 132 -4 140 -11 15 -13 384 -8
542 7 44 5 79 4 76 0 -3 -5 10 -6 29 -3 285 48 353 63 540 121 1382 430 2312
1752 2246 3195 -5 113 -15 243 -23 290 -42 261 -63 354 -120 536 -128 408
-334 779 -616 1114 -82 96 -156 182 -166 190 -10 8 -73 65 -139 127 -67 62
-125 113 -129 113 -4 0 -4 -7 -1 -16 6 -14 4 -15 -9 -4 -12 10 -13 15 -4 21 8
5 -6 20 -42 43 -71 47 -206 141 -246 172 -28 21 -159 92 -355 191 -37 18 -153
65 -259 103 -195 71 -491 147 -664 169 -72 9 -828 14 -837 6z m682 -35 c423
-39 825 -157 1185 -347 94 -49 176 -88 183 -85 9 3 8 8 -5 19 -17 13 -17 14 2
4 11 -5 20 -17 20 -27 0 -12 57 -58 160 -131 1039 -732 1542 -2025 1268 -3263
-60 -271 -151 -529 -260 -739 -113 -216 -133 -250 -248 -413 -229 -325 -549
-630 -880 -839 -88 -55 -162 -103 -165 -105 -2 -3 2 -9 9 -13 9 -6 10 -11 2
-15 -6 -4 -11 -2 -11 3 0 20 -21 12 -208 -74 -894 -413 -1922 -388 -2792 66
-96 50 -193 103 -215 118 -192 130 -338 242 -435 331 -63 59 -130 120 -149
136 -29 25 -109 118 -266 309 -22 28 -92 130 -154 228 -130 204 -260 478 -316
660 -18 62 -45 148 -60 192 -46 140 -94 453 -107 695 -6 118 -10 222 -10 230
1 8 10 103 21 210 103 987 638 1854 1465 2374 208 131 482 262 671 320 66 21
161 50 210 66 50 15 113 31 140 34 28 4 111 18 185 32 87 15 200 27 320 33
102 4 194 9 205 9 11 1 117 -7 235 -18z m227 4 c-3 -3 -12 -4 -19 -1 -8 3 -5
6 6 6 11 1 17 -2 13 -5z m973 -330 c0 -2 -13 2 -30 11 -16 9 -30 18 -30 21 0
2 14 -2 30 -11 17 -9 30 -18 30 -21z m260 -150 c0 -3 -13 4 -30 16 -16 12 -30
24 -30 26 0 3 14 -4 30 -16 17 -12 30 -24 30 -26z m-3470 1 c0 -2 -10 -9 -22
-15 -22 -11 -22 -10 -4 4 21 17 26 19 26 11z m3570 -67 c0 -5 -11 -1 -25 8
-14 9 -25 18 -25 20 0 2 11 -2 25 -8 14 -6 25 -15 25 -20z m30 -18 c0 -5 -2
-10 -4 -10 -3 0 -8 5 -11 10 -3 6 -1 10 4 10 6 0 11 -4 11 -10z m70 -53 c0 -5
-13 1 -30 13 -16 12 -30 24 -30 26 0 3 14 -3 30 -13 17 -9 30 -21 30 -26z
m-3840 30 c0 -2 -10 -12 -22 -23 l-23 -19 19 23 c18 21 26 27 26 19z m3875
-55 c-3 -3 -11 0 -18 7 -9 10 -8 11 6 5 10 -3 15 -9 12 -12z m-3935 5 c0 -2
-10 -12 -22 -23 l-23 -19 19 23 c18 21 26 27 26 19z m-60 -50 c0 -2 -10 -12
-22 -23 l-23 -19 19 23 c18 21 26 27 26 19z m4122 -57 c24 -22 38 -40 33 -40
-6 0 -29 18 -50 40 -51 52 -39 52 17 0z m-4182 7 c0 -2 -10 -12 -22 -23 l-23
-19 19 23 c18 21 26 27 26 19z m-50 -40 c0 -2 -12 -14 -27 -28 l-28 -24 24 28
c23 25 31 32 31 24z m4357 -82 c20 -19 35 -36 32 -39 -3 -3 -23 12 -44 34 -48
49 -40 53 12 5z m-4467 -28 c0 -1 -24 -25 -52 -52 l-53 -50 50 53 c46 48 55
57 55 49z m4608 -115 c20 -30 11 -28 -19 4 -13 15 -18 25 -10 22 8 -2 21 -14
29 -26z m-4778 -67 c-24 -25 -46 -45 -49 -45 -3 0 15 20 39 45 24 25 46 45 49
45 3 0 -15 -20 -39 -45z m4817 20 c8 -9 13 -18 11 -21 -3 -2 -13 5 -23 16 -21
23 -11 27 12 5z m64 -76 c13 -26 7 -24 -22 7 -17 19 -19 23 -6 18 10 -3 22
-15 28 -25z m-4951 -23 c0 -2 -8 -10 -17 -17 -16 -13 -17 -12 -4 4 13 16 21
21 21 13z m4998 -36 c7 -11 11 -20 9 -20 -2 0 -12 9 -22 20 -10 11 -14 20 -9
20 5 0 15 -9 22 -20z m-5048 -34 c0 -2 -8 -10 -17 -17 -16 -13 -17 -12 -4 4
13 16 21 21 21 13z m5109 -37 c32 -43 21 -46 -12 -4 -15 19 -24 35 -19 35 4 0
18 -14 31 -31z m-5179 -59 c-12 -16 -24 -30 -26 -30 -3 0 4 14 16 30 12 17 24
30 26 30 3 0 -4 -13 -16 -30z m-50 -74 c0 -2 -8 -10 -17 -17 -16 -13 -17 -12
-4 4 13 16 21 21 21 13z m5320 -6 c0 -5 -2 -10 -4 -10 -3 0 -8 5 -11 10 -3 6
-1 10 4 10 6 0 11 -4 11 -10z m-5391 -95 c-12 -19 -23 -35 -25 -35 -6 0 14 40
29 58 18 23 16 12 -4 -23z m5459 -21 c-4 -3 -12 5 -18 18 -12 22 -12 22 6 6
10 -10 15 -20 12 -24z m70 -110 c-4 -3 -12 5 -18 18 -12 22 -12 22 6 6 10 -10
15 -20 12 -24z m-5613 -24 c-9 -16 -18 -30 -21 -30 -2 0 2 14 11 30 9 17 18
30 21 30 2 0 -2 -13 -11 -30z m-97 -185 c-6 -14 -13 -23 -15 -21 -5 5 15 46
22 46 3 0 -1 -11 -7 -25z m-261 -897 c-3 -8 -6 -5 -6 6 -1 11 2 17 5 13 3 -3
4 -12 1 -19z m6350 -215 c-3 -10 -5 -4 -5 12 0 17 2 24 5 18 2 -7 2 -21 0 -30z
m-6380 -190 c-2 -21 -4 -4 -4 37 0 41 2 58 4 38 2 -21 2 -55 0 -75z m10 -255
c-3 -8 -6 -5 -6 6 -1 11 2 17 5 13 3 -3 4 -12 1 -19z m6360 -110 c-3 -8 -6 -5
-6 6 -1 11 2 17 5 13 3 -3 4 -12 1 -19z m-309 -1073 c-6 -14 -13 -23 -15 -21
-5 5 15 46 22 46 3 0 -1 -11 -7 -25z m-47 -88 c-10 -9 -11 -8 -5 6 3 10 9 15
12 12 3 -3 0 -11 -7 -18z m-5627 -23 c3 -8 2 -12 -4 -9 -6 3 -10 10 -10 16 0
14 7 11 14 -7z m5546 -134 c-6 -11 -13 -20 -16 -20 -2 0 0 9 6 20 6 11 13 20
16 20 2 0 0 -9 -6 -20z m-5450 -20 c6 -11 8 -20 6 -20 -3 0 -10 9 -16 20 -6
11 -8 20 -6 20 3 0 10 -9 16 -20z m5430 -14 c0 -2 -8 -10 -17 -17 -16 -13 -17
-12 -4 4 13 16 21 21 21 13z m-5380 -66 c6 -11 8 -20 6 -20 -3 0 -10 9 -16 20
-6 11 -8 20 -6 20 3 0 10 -9 16 -20z m5310 -34 c0 -2 -8 -10 -17 -17 -16 -13
-17 -12 -4 4 13 16 21 21 21 13z m-5235 -82 c9 -15 12 -23 6 -20 -11 7 -35 46
-28 46 3 0 12 -12 22 -26z m5165 -18 c0 -2 -8 -10 -17 -17 -16 -13 -17 -12 -4
4 13 16 21 21 21 13z m-5115 -43 l18 -28 -21 19 c-12 11 -22 23 -22 28 0 14 7
9 25 -19z m53 -63 c7 -11 11 -20 9 -20 -2 0 -12 9 -22 20 -10 11 -14 20 -9 20
5 0 15 -9 22 -20z m4992 7 c0 -2 -15 -16 -32 -33 l-33 -29 29 33 c28 30 36 37
36 29z m-80 -90 c0 -1 -24 -25 -52 -52 l-53 -50 50 53 c46 48 55 57 55 49z
m-4815 -37 c10 -11 16 -20 13 -20 -3 0 -13 9 -23 20 -10 11 -16 20 -13 20 3 0
13 -9 23 -20z m45 -50 c6 -11 9 -20 7 -20 -2 0 -12 9 -22 20 -10 11 -13 20 -7
20 6 0 16 -9 22 -20z m4620 -75 c-24 -25 -46 -45 -49 -45 -3 0 15 20 39 45 24
25 46 45 49 45 3 0 -15 -20 -39 -45z m-4486 -61 c3 -8 4 -14 3 -14 -2 0 -27
25 -57 57 l-55 56 52 -42 c28 -24 54 -49 57 -57z m4406 -17 c0 -2 -12 -14 -27
-28 l-28 -24 24 28 c23 25 31 32 31 24z m-60 -50 c0 -2 -12 -14 -27 -28 l-28
-24 24 28 c23 25 31 32 31 24z m-60 -50 c0 -2 -12 -14 -27 -28 l-28 -24 24 28
c23 25 31 32 31 24z m-4080 -69 c0 -12 -6 -9 -26 13 -19 22 -19 22 4 8 12 -8
22 -17 22 -21z m4020 19 c0 -2 -12 -14 -27 -28 l-28 -24 24 28 c23 25 31 32
31 24z m-3980 -47 c0 -5 -2 -10 -4 -10 -3 0 -8 5 -11 10 -3 6 -1 10 4 10 6 0
11 -4 11 -10z m3920 -3 c0 -2 -12 -14 -27 -28 l-28 -24 24 28 c23 25 31 32 31
24z m-3859 -44 c13 -16 12 -17 -3 -4 -17 13 -22 21 -14 21 2 0 10 -8 17 -17z
m39 -23 c0 -5 -2 -10 -4 -10 -3 0 -8 5 -11 10 -3 6 -1 10 4 10 6 0 11 -4 11
-10z m3690 -35 c0 -2 -10 -9 -22 -15 -22 -11 -22 -10 -4 4 21 17 26 19 26 11z
m-3620 -15 c0 -5 -2 -10 -4 -10 -3 0 -8 5 -11 10 -3 6 -1 10 4 10 6 0 11 -4
11 -10z m30 -20 c0 -5 -2 -10 -4 -10 -3 0 -8 5 -11 10 -3 6 -1 10 4 10 6 0 11
-4 11 -10z m40 -32 c0 -6 -6 -5 -15 2 -8 7 -15 14 -15 16 0 2 7 1 15 -2 8 -4
15 -11 15 -16z m3440 -3 c0 -2 -10 -9 -22 -15 -22 -11 -22 -10 -4 4 21 17 26
19 26 11z m-3410 -15 c0 -5 -2 -10 -4 -10 -3 0 -8 5 -11 10 -3 6 -1 10 4 10 6
0 11 -4 11 -10z m3300 -55 c0 -2 -10 -9 -22 -15 -22 -11 -22 -10 -4 4 21 17
26 19 26 11z m-3080 -71 c0 -2 -13 2 -30 11 -16 9 -30 18 -30 21 0 2 14 -2 30
-11 17 -9 30 -18 30 -21z m179 -90 c14 -12 -19 -1 -35 12 -18 14 -18 14 6 3
14 -6 27 -13 29 -15z m834 -241 c-7 -2 -21 -2 -30 0 -10 3 -4 5 12 5 17 0 24
-2 18 -5z"/>
<path d="M3545 5650 c-457 -38 -961 -240 -1315 -527 -110 -89 -270 -242 -270
-257 0 -6 21 10 48 34 l47 45 -44 -47 c-24 -26 -48 -45 -52 -43 -13 9 -123
-120 -210 -246 -228 -327 -391 -755 -428 -1123 -16 -156 -15 -176 7 -176 17 0
20 15 32 138 13 148 65 395 106 507 14 39 39 106 56 150 48 128 171 354 269
492 566 799 1553 1175 2509 958 85 -19 171 -42 190 -49 19 -8 82 -32 140 -52
58 -20 160 -66 227 -101 119 -61 151 -73 138 -54 -3 5 2 11 11 13 9 2 -44 34
-117 72 -416 213 -876 304 -1344 266z m502 -26 c-3 -3 -12 -4 -19 -1 -8 3 -5
6 6 6 11 1 17 -2 13 -5z m778 -224 c3 -6 -1 -7 -9 -4 -18 7 -21 14 -7 14 6 0
13 -4 16 -10z m-2515 -233 c0 -2 -10 -12 -22 -23 l-23 -19 19 23 c18 21 26 27
26 19z m-60 -50 c0 -2 -10 -12 -22 -23 l-23 -19 19 23 c18 21 26 27 26 19z
m-60 -50 c0 -2 -10 -12 -22 -23 l-23 -19 19 23 c18 21 26 27 26 19z m-60 -50
c0 -2 -10 -12 -22 -23 l-23 -19 19 23 c18 21 26 27 26 19z m-190 -200 c0 -2
-19 -21 -42 -42 l-43 -40 40 43 c36 39 45 47 45 39z m-180 -231 c0 -2 -8 -10
-17 -17 -16 -13 -17 -12 -4 4 13 16 21 21 21 13z m-137 -221 c-3 -9 -8 -14
-10 -11 -3 3 -2 9 2 15 9 16 15 13 8 -4z m-286 -927 c-3 -8 -6 -5 -6 6 -1 11
2 17 5 13 3 -3 4 -12 1 -19z"/>
<path d="M5032 5284 c-10 -11 -4 -19 30 -44 24 -17 88 -64 143 -104 388 -282
713 -737 854 -1197 23 -72 43 -134 45 -138 3 -4 19 -89 36 -188 26 -152 31
-209 32 -369 3 -234 -11 -366 -57 -570 -95 -421 -291 -797 -574 -1103 -133
-143 -326 -305 -475 -400 -64 -40 -116 -76 -116 -79 1 -34 23 -26 137 46 345
219 666 569 854 931 456 882 337 1955 -302 2714 -136 161 -396 398 -466 424
-16 6 -17 5 -3 -13 14 -18 14 -18 -2 -5 -10 7 -16 17 -13 21 6 9 -17 30 -70
62 -33 21 -42 23 -53 12z m248 -164 c0 -5 -2 -10 -4 -10 -3 0 -8 5 -11 10 -3
6 -1 10 4 10 6 0 11 -4 11 -10z m77 -70 c22 -31 10 -23 -32 22 -31 32 -33 36
-11 19 16 -12 36 -31 43 -41z m109 -92 c22 -25 37 -48 32 -48 -2 0 -24 21 -48
46 -25 26 -36 42 -25 36 11 -6 29 -21 41 -34z m102 -108 c7 -11 11 -20 9 -20
-2 0 -12 9 -22 20 -10 11 -14 20 -9 20 5 0 15 -9 22 -20z m62 -70 c0 -15 -5
-12 -26 11 -19 22 -19 22 4 10 12 -6 22 -16 22 -21z m40 -50 c6 -11 9 -20 7
-20 -2 0 -12 9 -22 20 -10 11 -13 20 -7 20 6 0 16 -9 22 -20z m60 -72 c0 -6
-6 -5 -15 2 -8 7 -15 14 -15 16 0 2 7 1 15 -2 8 -4 15 -11 15 -16z m-50 -2971
c0 -2 -10 -12 -22 -23 l-23 -19 19 23 c18 21 26 27 26 19z m-110 -122 c-24
-25 -46 -45 -49 -45 -3 0 15 20 39 45 24 25 46 45 49 45 3 0 -15 -20 -39 -45z
m-70 -78 c0 -2 -19 -21 -42 -42 l-43 -40 40 43 c36 39 45 47 45 39z m-100 -90
c0 -2 -10 -12 -22 -23 l-23 -19 19 23 c18 21 26 27 26 19z m-60 -50 c0 -2 -10
-12 -22 -23 l-23 -19 19 23 c18 21 26 27 26 19z m-60 -50 c0 -2 -10 -12 -22
-23 l-23 -19 19 23 c18 21 26 27 26 19z m-60 -51 c0 -2 -8 -10 -17 -17 -16
-13 -17 -12 -4 4 13 16 21 21 21 13z"/>
<path d="M3455 4935 c-395 -73 -735 -260 -1001 -554 -84 -93 -115 -135 -82
-115 7 4 8 3 4 -5 -4 -6 -11 -9 -16 -6 -12 8 -92 -109 -154 -227 -104 -194
-185 -458 -201 -645 -7 -78 -6 -83 13 -83 17 0 20 9 27 78 10 116 52 293 100
422 274 735 1001 1191 1780 1114 219 -22 425 -80 612 -173 90 -44 103 -48 103
-28 0 14 -128 92 -176 106 -16 5 -58 21 -94 36 -77 31 -273 79 -383 94 -133
18 -395 12 -532 -14z m-745 -338 c0 -2 -10 -12 -22 -23 l-23 -19 19 23 c18 21
26 27 26 19z m-60 -51 c0 -2 -8 -10 -17 -17 -16 -13 -17 -12 -4 4 13 16 21 21
21 13z m-60 -49 c0 -1 -28 -29 -62 -62 l-63 -60 60 63 c55 58 65 67 65 59z
m-150 -160 c0 -2 -12 -14 -27 -28 l-28 -24 24 28 c23 25 31 32 31 24z"/>
<path d="M4670 4691 c0 -13 27 -39 81 -78 579 -411 851 -1123 689 -1802 -72
-304 -201 -548 -410 -780 -89 -99 -207 -200 -316 -271 -95 -62 -88 -55 -77
-74 16 -29 206 107 366 263 80 78 109 125 35 56 l-43 -40 39 42 c22 23 43 40
47 38 21 -14 184 215 256 360 173 347 227 729 158 1120 -63 358 -268 725 -549
980 -71 64 -257 205 -271 205 -3 0 -5 -9 -5 -19z m221 -152 c13 -26 7 -24 -22
7 -17 19 -19 23 -6 18 10 -3 22 -15 28 -25z m102 -89 c17 -16 29 -31 26 -34
-3 -3 -21 10 -39 29 -41 43 -31 47 13 5z m62 -61 c11 -17 -1 -21 -15 -4 -8 9
-8 15 -2 15 6 0 14 -5 17 -11z m49 -65 c5 -14 4 -15 -9 -4 -17 14 -19 20 -6
20 5 0 12 -7 15 -16z m47 -61 c13 -16 12 -17 -3 -4 -10 7 -18 15 -18 17 0 8 8
3 21 -13z m-11 -2147 c0 -2 -8 -10 -17 -17 -16 -13 -17 -12 -4 4 13 16 21 21
21 13z m-190 -199 c0 -2 -10 -12 -22 -23 l-23 -19 19 23 c18 21 26 27 26 19z
m-60 -50 c0 -2 -10 -12 -22 -23 l-23 -19 19 23 c18 21 26 27 26 19z m-60 -50
c0 -2 -10 -12 -22 -23 l-23 -19 19 23 c18 21 26 27 26 19z"/>
<path d="M3625 4085 c-173 -29 -311 -98 -443 -220 -336 -311 -353 -836 -38
-1182 228 -250 610 -338 919 -212 40 16 75 29 79 29 4 0 45 27 91 59 239 170
370 416 369 696 0 430 -308 781 -732 834 -104 13 -143 13 -245 -4z m260 -340
c228 -60 395 -273 395 -505 0 -336 -332 -590 -652 -501 -289 80 -455 397 -354
675 90 249 361 396 611 331z"/>
<path d="M1305 3123 c9 -208 51 -457 111 -648 49 -158 56 -176 128 -328 25
-53 46 -99 46 -102 0 -2 39 -66 87 -142 228 -360 563 -671 930 -865 144 -77
167 -86 358 -157 448 -166 1036 -174 1528 -21 152 48 447 174 447 192 0 5 -4
6 -10 3 -6 -3 -7 1 -4 9 3 9 4 16 0 16 -3 0 -68 -29 -143 -64 -485 -224 -1020
-283 -1538 -169 -966 213 -1701 983 -1866 1956 -18 109 -29 208 -29 272 0 153
-9 205 -32 205 -19 0 -20 -5 -13 -157z m496 -1370 c13 -16 12 -17 -3 -4 -10 7
-18 15 -18 17 0 8 8 3 21 -13z m43 -49 c5 -14 4 -15 -9 -4 -17 14 -19 20 -6
20 5 0 12 -7 15 -16z m54 -64 c7 -11 11 -20 9 -20 -2 0 -12 9 -22 20 -10 11
-14 20 -9 20 5 0 15 -9 22 -20z m43 -57 c13 -16 12 -17 -3 -4 -10 7 -18 15
-18 17 0 8 8 3 21 -13z m99 -107 c0 -5 -16 5 -35 24 -19 19 -35 37 -35 41 0 4
16 -7 35 -24 19 -17 35 -35 35 -41z m109 -94 c13 -12 22 -24 19 -27 -2 -2 -24
17 -49 42 -41 45 -23 35 30 -15z m91 -84 c0 -6 -6 -5 -15 2 -8 7 -15 14 -15
16 0 2 7 1 15 -2 8 -4 15 -11 15 -16z m70 -48 c0 -5 -2 -10 -4 -10 -3 0 -8 5
-11 10 -3 6 -1 10 4 10 6 0 11 -4 11 -10z m70 -50 c0 -5 -2 -10 -4 -10 -3 0
-8 5 -11 10 -3 6 -1 10 4 10 6 0 11 -4 11 -10z m30 -20 c0 -5 -2 -10 -4 -10
-3 0 -8 5 -11 10 -3 6 -1 10 4 10 6 0 11 -4 11 -10z m40 -30 c0 -5 -2 -10 -4
-10 -3 0 -8 5 -11 10 -3 6 -1 10 4 10 6 0 11 -4 11 -10z m997 -366 c-3 -3 -12
-4 -19 -1 -8 3 -5 6 6 6 11 1 17 -2 13 -5z"/>
<path d="M1999 3258 c0 -7 0 -64 1 -126 2 -140 36 -331 85 -484 43 -131 134
-324 152 -321 7 2 10 -3 8 -10 -6 -15 79 -153 93 -150 5 1 18 -8 28 -20 l19
-22 -22 19 c-13 11 -23 15 -23 9 0 -13 45 -55 52 -48 2 3 13 -5 24 -17 l19
-23 -22 19 c-13 11 -23 15 -23 9 0 -11 41 -51 53 -52 4 -1 11 -1 16 -1 5 0 12
-8 15 -17 6 -15 4 -15 -14 2 -11 10 -20 13 -20 7 0 -6 48 -55 106 -109 103
-95 135 -121 119 -92 -5 8 -4 11 1 6 5 -5 9 -14 9 -19 0 -6 6 -13 14 -16 9 -3
11 0 6 9 -5 8 -4 11 1 6 5 -5 9 -12 9 -15 0 -13 16 -32 26 -32 6 0 7 5 3 12
-4 7 -3 8 5 4 6 -4 9 -11 6 -16 -3 -5 8 -18 24 -29 33 -24 45 -27 35 -8 -4 7
-3 9 2 4 5 -5 9 -14 9 -20 0 -5 6 -12 14 -15 9 -3 11 0 6 8 -5 9 -4 11 4 6 6
-4 9 -11 6 -16 -6 -10 145 -91 240 -128 33 -13 83 -33 110 -44 82 -32 251 -68
395 -82 308 -32 634 23 917 155 89 41 103 51 93 64 -13 16 -9 17 -150 -47
-383 -176 -866 -190 -1284 -37 -162 59 -275 121 -466 255 -94 67 -307 298
-380 414 -19 31 -41 64 -48 75 -11 18 -100 200 -123 250 -15 36 -76 258 -89
325 -11 58 -32 289 -32 348 0 23 -27 32 -29 10z m605 -1365 c9 -20 3 -16 -39
29 l-40 42 37 -30 c20 -16 39 -35 42 -41z"/>
</g>
</svg>
